<svg xmlns="http://www.w3.org/2000/svg" viewBox="0 0 900 1200" width="900" height="1200" role="img" aria-label="Botanical illustration">
  <defs>
<filter id="soft" x="-60%" y="-60%" width="220%" height="220%">
  <feGaussianBlur stdDeviation="1.1"/>
</filter>
<linearGradient id="bg43" x1="0%" y1="0%" x2="100%" y2="100%"><stop offset="0%" stop-color="#FBF3EC"/><stop offset="60%" stop-color="#D8BFA3"/><stop offset="100%" stop-color="#F8DDD0"/></linearGradient><radialGradient id="light43" cx="28%" cy="18%" r="70%"><stop offset="0%" stop-color="#FFFFFF" stop-opacity="0.30"/><stop offset="100%" stop-color="#FFFFFF" stop-opacity="0"/></radialGradient><radialGradient id="vig43" cx="50%" cy="52%" r="75%"><stop offset="60%" stop-color="#000000" stop-opacity="0"/><stop offset="100%" stop-color="#000000" stop-opacity="0.10"/></radialGradient></defs>
  <rect width="900" height="1200" fill="url(#bg43)"/>
  <rect width="900" height="1200" fill="url(#light43)"/>
  <path d="M216.0,912.0 L236.5,888.9 L256.4,865.5 L275.9,841.8 L294.9,817.9 L313.4,793.7 L331.5,769.3 L349.0,744.6 L366.1,719.6 L382.6,694.4 L398.7,668.9 L414.3,643.1 L429.4,617.0 L444.0,590.7 L458.1,564.2 L471.7,537.3 L484.9,510.2 L497.5,482.9 L509.7,455.2 L521.4,427.3 L532.6,399.2 L543.3,370.8 L553.5,342.1 L563.2,313.1 L572.5,283.9 L581.2,254.4 L589.5,224.7" fill="none" stroke="#57603F" stroke-width="6.7" stroke-opacity="0.65" stroke-linecap="round" filter="url(#soft)"/><ellipse cx="276.9" cy="793.9" rx="33.4" ry="15.0" transform="rotate(-112.2 276.9 793.9)" fill="#6D7659" fill-opacity="0.62" style="mix-blend-mode:multiply" filter="url(#soft)"/><line x1="289.6" y1="824.8" x2="264.3" y2="762.9" stroke="#6D7659" stroke-opacity="0.77" stroke-width="1.8"/><ellipse cx="395.8" cy="732.1" rx="39.5" ry="17.8" transform="rotate(-2.7 395.8 732.1)" fill="#9AA483" fill-opacity="0.62" style="mix-blend-mode:multiply" filter="url(#soft)"/><line x1="356.4" y1="733.9" x2="435.3" y2="730.2" stroke="#9AA483" stroke-opacity="0.77" stroke-width="2.1"/><ellipse cx="398.9" cy="603.2" rx="40.2" ry="18.1" transform="rotate(-115.9 398.9 603.2)" fill="#57603F" fill-opacity="0.62" style="mix-blend-mode:multiply" filter="url(#soft)"/><line x1="416.5" y1="639.4" x2="381.3" y2="567.1" stroke="#57603F" stroke-opacity="0.77" stroke-width="2.2"/><ellipse cx="509.7" cy="534.5" rx="40.4" ry="18.2" transform="rotate(-9.5 509.7 534.5)" fill="#6D7659" fill-opacity="0.62" style="mix-blend-mode:multiply" filter="url(#soft)"/><line x1="469.8" y1="541.2" x2="549.5" y2="527.9" stroke="#6D7659" stroke-opacity="0.77" stroke-width="2.2"/><ellipse cx="486.1" cy="405.1" rx="45.7" ry="20.6" transform="rotate(-131.6 486.1 405.1)" fill="#9AA483" fill-opacity="0.62" style="mix-blend-mode:multiply" filter="url(#soft)"/><line x1="516.4" y1="439.3" x2="455.7" y2="370.9" stroke="#9AA483" stroke-opacity="0.77" stroke-width="2.5"/><ellipse cx="603.7" cy="316.8" rx="50.3" ry="22.6" transform="rotate(-19.8 603.7 316.8)" fill="#57603F" fill-opacity="0.62" style="mix-blend-mode:multiply" filter="url(#soft)"/><line x1="556.3" y1="333.8" x2="651.0" y2="299.8" stroke="#57603F" stroke-opacity="0.77" stroke-width="2.7"/><path d="M216.0,912.0 L236.6,895.1 L256.8,877.8 L276.4,860.3 L295.6,842.3 L314.3,824.1 L332.5,805.5 L350.2,786.6 L367.4,767.3 L384.2,747.7 L400.4,727.8 L416.2,707.5 L431.5,686.9 L446.3,666.0 L460.6,644.7 L474.4,623.1 L487.7,601.2 L500.5,578.9 L512.9,556.3 L524.8,533.3 L536.1,510.0 L547.0,486.4 L557.4,462.4 L567.4,438.1 L576.8,413.5 L585.7,388.5 L594.2,363.2" fill="none" stroke="#57603F" stroke-width="6.7" stroke-opacity="0.65" stroke-linecap="round" filter="url(#soft)"/><ellipse cx="276.9" cy="806.0" rx="43.6" ry="19.6" transform="rotate(-107.8 276.9 806.0)" fill="#6D7659" fill-opacity="0.62" style="mix-blend-mode:multiply" filter="url(#soft)"/><line x1="290.2" y1="847.5" x2="263.6" y2="764.5" stroke="#6D7659" stroke-opacity="0.77" stroke-width="2.4"/><ellipse cx="396.6" cy="784.0" rx="39.4" ry="17.7" transform="rotate(8.2 396.6 784.0)" fill="#9AA483" fill-opacity="0.62" style="mix-blend-mode:multiply" filter="url(#soft)"/><line x1="357.7" y1="778.4" x2="435.6" y2="789.7" stroke="#9AA483" stroke-opacity="0.77" stroke-width="2.1"/><ellipse cx="393.2" cy="658.8" rx="52.3" ry="23.5" transform="rotate(-118.9 393.2 658.8)" fill="#57603F" fill-opacity="0.62" style="mix-blend-mode:multiply" filter="url(#soft)"/><line x1="418.4" y1="704.6" x2="367.9" y2="613.0" stroke="#57603F" stroke-opacity="0.77" stroke-width="2.8"/><ellipse cx="525.9" cy="619.6" rx="53.9" ry="24.2" transform="rotate(-7.0 525.9 619.6)" fill="#6D7659" fill-opacity="0.62" style="mix-blend-mode:multiply" filter="url(#soft)"/><line x1="472.4" y1="626.2" x2="579.4" y2="613.1" stroke="#6D7659" stroke-opacity="0.77" stroke-width="2.9"/><ellipse cx="488.6" cy="503.8" rx="50.3" ry="22.6" transform="rotate(-128.4 488.6 503.8)" fill="#9AA483" fill-opacity="0.62" style="mix-blend-mode:multiply" filter="url(#soft)"/><line x1="519.7" y1="543.2" x2="457.4" y2="464.4" stroke="#9AA483" stroke-opacity="0.77" stroke-width="2.7"/><ellipse cx="612.8" cy="446.6" rx="53.2" ry="23.9" transform="rotate(-9.6 612.8 446.6)" fill="#57603F" fill-opacity="0.62" style="mix-blend-mode:multiply" filter="url(#soft)"/><line x1="560.3" y1="455.5" x2="665.2" y2="437.7" stroke="#57603F" stroke-opacity="0.77" stroke-width="2.9"/><path d="M216.0,912.0 L234.2,888.1 L251.6,863.9 L268.2,839.5 L284.1,814.9 L299.3,790.0 L313.7,764.8 L327.4,739.5 L340.3,713.8 L352.5,688.0 L363.9,661.9 L374.6,635.5 L384.5,608.9 L393.7,582.1 L402.2,555.0 L409.9,527.6 L416.8,500.1 L423.0,472.2 L428.5,444.2 L433.2,415.9 L437.2,387.3 L440.4,358.5 L442.8,329.5 L444.6,300.2 L445.5,270.6 L445.8,240.9 L445.3,210.9" fill="none" stroke="#57603F" stroke-width="6.7" stroke-opacity="0.65" stroke-linecap="round" filter="url(#soft)"/><ellipse cx="262.8" cy="782.2" rx="43.2" ry="19.4" transform="rotate(-113.0 262.8 782.2)" fill="#6D7659" fill-opacity="0.62" style="mix-blend-mode:multiply" filter="url(#soft)"/><line x1="279.7" y1="821.9" x2="245.9" y2="742.5" stroke="#6D7659" stroke-opacity="0.77" stroke-width="2.3"/><ellipse cx="376.5" cy="726.1" rx="43.5" ry="19.6" transform="rotate(-3.2 376.5 726.1)" fill="#9AA483" fill-opacity="0.62" style="mix-blend-mode:multiply" filter="url(#soft)"/><line x1="333.0" y1="728.5" x2="419.9" y2="723.6" stroke="#9AA483" stroke-opacity="0.77" stroke-width="2.3"/><ellipse cx="355.8" cy="598.2" rx="39.2" ry="17.6" transform="rotate(-121.2 355.8 598.2)" fill="#57603F" fill-opacity="0.62" style="mix-blend-mode:multiply" filter="url(#soft)"/><line x1="376.1" y1="631.7" x2="335.5" y2="564.7" stroke="#57603F" stroke-opacity="0.77" stroke-width="2.1"/><ellipse cx="459.6" cy="508.7" rx="55.7" ry="25.1" transform="rotate(-24.2 459.6 508.7)" fill="#6D7659" fill-opacity="0.62" style="mix-blend-mode:multiply" filter="url(#soft)"/><line x1="408.8" y1="531.6" x2="510.4" y2="485.9" stroke="#6D7659" stroke-opacity="0.77" stroke-width="3.0"/><ellipse cx="389.5" cy="388.0" rx="57.9" ry="26.0" transform="rotate(-136.2 389.5 388.0)" fill="#9AA483" fill-opacity="0.62" style="mix-blend-mode:multiply" filter="url(#soft)"/><line x1="431.3" y1="428.0" x2="347.8" y2="347.9" stroke="#9AA483" stroke-opacity="0.77" stroke-width="3.1"/><ellipse cx="498.0" cy="293.1" rx="61.3" ry="27.6" transform="rotate(-27.2 498.0 293.1)" fill="#57603F" fill-opacity="0.62" style="mix-blend-mode:multiply" filter="url(#soft)"/><line x1="443.4" y1="321.1" x2="552.5" y2="265.1" stroke="#57603F" stroke-opacity="0.77" stroke-width="3.3"/><path d="M216.0,912.0 L239.0,885.8 L261.0,859.3 L282.1,832.4 L302.1,805.1 L321.2,777.6 L339.3,749.6 L356.4,721.4 L372.5,692.8 L387.7,663.8 L401.8,634.5 L415.0,604.8 L427.1,574.8 L438.3,544.5 L448.5,513.8 L457.7,482.8 L466.0,451.4 L473.2,419.7 L479.5,387.6 L484.7,355.2 L489.0,322.4 L492.3,289.3 L494.6,255.9 L496.0,222.1 L496.3,187.9 L495.7,153.5 L494.0,118.6" fill="none" stroke="#57603F" stroke-width="6.7" stroke-opacity="0.65" stroke-linecap="round" filter="url(#soft)"/><ellipse cx="280.2" cy="784.5" rx="32.8" ry="14.8" transform="rotate(-119.9 280.2 784.5)" fill="#6D7659" fill-opacity="0.62" style="mix-blend-mode:multiply" filter="url(#soft)"/><line x1="296.5" y1="813.0" x2="263.8" y2="756.1" stroke="#6D7659" stroke-opacity="0.77" stroke-width="1.8"/><ellipse cx="410.3" cy="701.5" rx="47.4" ry="21.3" transform="rotate(-9.3 410.3 701.5)" fill="#9AA483" fill-opacity="0.62" style="mix-blend-mode:multiply" filter="url(#soft)"/><line x1="363.4" y1="709.2" x2="457.1" y2="693.8" stroke="#9AA483" stroke-opacity="0.77" stroke-width="2.6"/><ellipse cx="391.0" cy="558.9" rx="49.0" ry="22.0" transform="rotate(-121.8 391.0 558.9)" fill="#57603F" fill-opacity="0.62" style="mix-blend-mode:multiply" filter="url(#soft)"/><line x1="416.8" y1="600.6" x2="365.2" y2="517.3" stroke="#57603F" stroke-opacity="0.77" stroke-width="2.6"/><ellipse cx="499.1" cy="472.8" rx="45.0" ry="20.2" transform="rotate(-18.7 499.1 472.8)" fill="#6D7659" fill-opacity="0.62" style="mix-blend-mode:multiply" filter="url(#soft)"/><line x1="456.5" y1="487.2" x2="541.7" y2="458.4" stroke="#6D7659" stroke-opacity="0.77" stroke-width="2.4"/><ellipse cx="447.6" cy="332.0" rx="51.0" ry="23.0" transform="rotate(-133.4 447.6 332.0)" fill="#9AA483" fill-opacity="0.62" style="mix-blend-mode:multiply" filter="url(#soft)"/><line x1="482.6" y1="369.1" x2="412.5" y2="294.9" stroke="#9AA483" stroke-opacity="0.77" stroke-width="2.8"/><ellipse cx="532.7" cy="219.5" rx="46.2" ry="20.8" transform="rotate(-35.4 532.7 219.5)" fill="#57603F" fill-opacity="0.62" style="mix-blend-mode:multiply" filter="url(#soft)"/><line x1="495.1" y1="246.3" x2="570.4" y2="192.7" stroke="#57603F" stroke-opacity="0.77" stroke-width="2.5"/><ellipse cx="489.5" cy="549.1" rx="51.6" ry="33.4" transform="rotate(37.2 489.5 549.1)" fill="#E3A98F" fill-opacity="0.60" style="mix-blend-mode:multiply" filter="url(#soft)"/><ellipse cx="404.1" cy="579.0" rx="51.6" ry="33.4" transform="rotate(104.2 404.1 579.0)" fill="#E3A98F" fill-opacity="0.60" style="mix-blend-mode:multiply" filter="url(#soft)"/><ellipse cx="345.8" cy="523.3" rx="51.6" ry="33.4" transform="rotate(163.1 345.8 523.3)" fill="#E3A98F" fill-opacity="0.60" style="mix-blend-mode:multiply" filter="url(#soft)"/><ellipse cx="362.5" cy="445.5" rx="51.6" ry="33.4" transform="rotate(221.2 362.5 445.5)" fill="#E3A98F" fill-opacity="0.60" style="mix-blend-mode:multiply" filter="url(#soft)"/><ellipse cx="447.0" cy="420.7" rx="51.6" ry="33.4" transform="rotate(286.1 447.0 420.7)" fill="#E3A98F" fill-opacity="0.60" style="mix-blend-mode:multiply" filter="url(#soft)"/><ellipse cx="500.4" cy="469.1" rx="51.6" ry="33.4" transform="rotate(338.2 500.4 469.1)" fill="#E3A98F" fill-opacity="0.60" style="mix-blend-mode:multiply" filter="url(#soft)"/><ellipse cx="443.6" cy="557.1" rx="41.0" ry="27.3" transform="rotate(71.5 443.6 557.1)" fill="#B97A85" fill-opacity="0.60" style="mix-blend-mode:multiply" filter="url(#soft)"/><ellipse cx="379.8" cy="540.9" rx="41.0" ry="27.3" transform="rotate(137.0 379.8 540.9)" fill="#B97A85" fill-opacity="0.60" style="mix-blend-mode:multiply" filter="url(#soft)"/><ellipse cx="363.9" cy="492.8" rx="41.0" ry="27.3" transform="rotate(186.3 363.9 492.8)" fill="#B97A85" fill-opacity="0.60" style="mix-blend-mode:multiply" filter="url(#soft)"/><ellipse cx="413.6" cy="439.7" rx="41.0" ry="27.3" transform="rotate(259.9 413.6 439.7)" fill="#B97A85" fill-opacity="0.60" style="mix-blend-mode:multiply" filter="url(#soft)"/><ellipse cx="464.6" cy="454.1" rx="41.0" ry="27.3" transform="rotate(311.7 464.6 454.1)" fill="#B97A85" fill-opacity="0.60" style="mix-blend-mode:multiply" filter="url(#soft)"/><ellipse cx="483.9" cy="510.9" rx="41.0" ry="27.3" transform="rotate(370.8 483.9 510.9)" fill="#B97A85" fill-opacity="0.60" style="mix-blend-mode:multiply" filter="url(#soft)"/><ellipse cx="418.9" cy="541.7" rx="30.4" ry="21.3" transform="rotate(97.2 418.9 541.7)" fill="#8C4452" fill-opacity="0.58" style="mix-blend-mode:multiply" filter="url(#soft)"/><ellipse cx="381.9" cy="503.7" rx="30.4" ry="21.3" transform="rotate(174.3 381.9 503.7)" fill="#8C4452" fill-opacity="0.58" style="mix-blend-mode:multiply" filter="url(#soft)"/><ellipse cx="404.2" cy="461.9" rx="30.4" ry="21.3" transform="rotate(241.9 404.2 461.9)" fill="#8C4452" fill-opacity="0.58" style="mix-blend-mode:multiply" filter="url(#soft)"/><ellipse cx="455.7" cy="470.9" rx="30.4" ry="21.3" transform="rotate(317.7 455.7 470.9)" fill="#8C4452" fill-opacity="0.58" style="mix-blend-mode:multiply" filter="url(#soft)"/><ellipse cx="458.2" cy="525.1" rx="30.4" ry="21.3" transform="rotate(397.1 458.2 525.1)" fill="#8C4452" fill-opacity="0.58" style="mix-blend-mode:multiply" filter="url(#soft)"/><circle cx="424.2" cy="499.5" r="27.3" fill="#5B1F2A" fill-opacity="0.9" filter="url(#soft)"/><circle cx="424.2" cy="499.5" r="12.2" fill="#D8BFA3" fill-opacity="0.7"/><ellipse cx="792.4" cy="513.8" rx="44.8" ry="29.0" transform="rotate(66.1 792.4 513.8)" fill="#F8DDD0" fill-opacity="0.60" style="mix-blend-mode:multiply" filter="url(#soft)"/><ellipse cx="716.9" cy="502.4" rx="44.8" ry="29.0" transform="rotate(131.1 716.9 502.4)" fill="#F8DDD0" fill-opacity="0.60" style="mix-blend-mode:multiply" filter="url(#soft)"/><ellipse cx="692.6" cy="449.4" rx="44.8" ry="29.0" transform="rotate(179.5 692.6 449.4)" fill="#F8DDD0" fill-opacity="0.60" style="mix-blend-mode:multiply" filter="url(#soft)"/><ellipse cx="739.4" cy="382.0" rx="44.8" ry="29.0" transform="rotate(250.1 739.4 382.0)" fill="#F8DDD0" fill-opacity="0.60" style="mix-blend-mode:multiply" filter="url(#soft)"/><ellipse cx="808.6" cy="393.8" rx="44.8" ry="29.0" transform="rotate(309.3 808.6 393.8)" fill="#F8DDD0" fill-opacity="0.60" style="mix-blend-mode:multiply" filter="url(#soft)"/><ellipse cx="834.2" cy="457.1" rx="44.8" ry="29.0" transform="rotate(366.7 834.2 457.1)" fill="#F8DDD0" fill-opacity="0.60" style="mix-blend-mode:multiply" filter="url(#soft)"/><ellipse cx="760.3" cy="501.4" rx="35.5" ry="23.7" transform="rotate(93.7 760.3 501.4)" fill="#F2C6B4" fill-opacity="0.60" style="mix-blend-mode:multiply" filter="url(#soft)"/><ellipse cx="715.9" cy="470.9" rx="35.5" ry="23.7" transform="rotate(155.2 715.9 470.9)" fill="#F2C6B4" fill-opacity="0.60" style="mix-blend-mode:multiply" filter="url(#soft)"/><ellipse cx="717.5" cy="423.6" rx="35.5" ry="23.7" transform="rotate(208.7 717.5 423.6)" fill="#F2C6B4" fill-opacity="0.60" style="mix-blend-mode:multiply" filter="url(#soft)"/><ellipse cx="772.9" cy="397.0" rx="35.5" ry="23.7" transform="rotate(280.1 772.9 397.0)" fill="#F2C6B4" fill-opacity="0.60" style="mix-blend-mode:multiply" filter="url(#soft)"/><ellipse cx="812.7" cy="429.7" rx="35.5" ry="23.7" transform="rotate(338.7 812.7 429.7)" fill="#F2C6B4" fill-opacity="0.60" style="mix-blend-mode:multiply" filter="url(#soft)"/><ellipse cx="804.7" cy="481.8" rx="35.5" ry="23.7" transform="rotate(398.8 804.7 481.8)" fill="#F2C6B4" fill-opacity="0.60" style="mix-blend-mode:multiply" filter="url(#soft)"/><ellipse cx="743.2" cy="479.5" rx="26.3" ry="18.4" transform="rotate(123.8 743.2 479.5)" fill="#E3A98F" fill-opacity="0.58" style="mix-blend-mode:multiply" filter="url(#soft)"/><ellipse cx="729.0" cy="436.3" rx="26.3" ry="18.4" transform="rotate(199.9 729.0 436.3)" fill="#E3A98F" fill-opacity="0.58" style="mix-blend-mode:multiply" filter="url(#soft)"/><ellipse cx="761.8" cy="412.0" rx="26.3" ry="18.4" transform="rotate(267.2 761.8 412.0)" fill="#E3A98F" fill-opacity="0.58" style="mix-blend-mode:multiply" filter="url(#soft)"/><ellipse cx="796.9" cy="432.8" rx="26.3" ry="18.4" transform="rotate(334.3 796.9 432.8)" fill="#E3A98F" fill-opacity="0.58" style="mix-blend-mode:multiply" filter="url(#soft)"/><ellipse cx="785.6" cy="478.4" rx="26.3" ry="18.4" transform="rotate(413.4 785.6 478.4)" fill="#E3A98F" fill-opacity="0.58" style="mix-blend-mode:multiply" filter="url(#soft)"/><circle cx="763.7" cy="448.8" r="23.7" fill="#8C4452" fill-opacity="0.9" filter="url(#soft)"/><circle cx="763.7" cy="448.8" r="10.5" fill="#D8BFA3" fill-opacity="0.7"/><ellipse cx="212.4" cy="322.3" rx="16.1" ry="10.2" transform="rotate(40.2 212.4 322.3)" fill="#FFFBF6" fill-opacity="0.85" style="mix-blend-mode:multiply" filter="url(#soft)"/><ellipse cx="198.4" cy="327.2" rx="16.1" ry="10.2" transform="rotate(101.2 198.4 327.2)" fill="#FFFBF6" fill-opacity="0.85" style="mix-blend-mode:multiply" filter="url(#soft)"/><ellipse cx="187.4" cy="317.6" rx="16.1" ry="10.2" transform="rotate(161.2 187.4 317.6)" fill="#FFFBF6" fill-opacity="0.85" style="mix-blend-mode:multiply" filter="url(#soft)"/><ellipse cx="189.4" cy="304.3" rx="16.1" ry="10.2" transform="rotate(216.0 189.4 304.3)" fill="#FFFBF6" fill-opacity="0.85" style="mix-blend-mode:multiply" filter="url(#soft)"/><ellipse cx="203.1" cy="298.3" rx="16.1" ry="10.2" transform="rotate(277.3 203.1 298.3)" fill="#FFFBF6" fill-opacity="0.85" style="mix-blend-mode:multiply" filter="url(#soft)"/><ellipse cx="214.5" cy="306.8" rx="16.1" ry="10.2" transform="rotate(335.4 214.5 306.8)" fill="#FFFBF6" fill-opacity="0.85" style="mix-blend-mode:multiply" filter="url(#soft)"/><circle cx="201.2" cy="312.9" r="8.2" fill="#D8BFA3" fill-opacity="0.95"/><ellipse cx="757.6" cy="283.7" rx="16.1" ry="10.2" transform="rotate(35.0 757.6 283.7)" fill="#F8DDD0" fill-opacity="0.85" style="mix-blend-mode:multiply" filter="url(#soft)"/><ellipse cx="745.5" cy="290.0" rx="16.1" ry="10.2" transform="rotate(90.1 745.5 290.0)" fill="#F8DDD0" fill-opacity="0.85" style="mix-blend-mode:multiply" filter="url(#soft)"/><ellipse cx="733.2" cy="283.1" rx="16.1" ry="10.2" transform="rotate(147.9 733.2 283.1)" fill="#F8DDD0" fill-opacity="0.85" style="mix-blend-mode:multiply" filter="url(#soft)"/><ellipse cx="732.6" cy="268.6" rx="16.1" ry="10.2" transform="rotate(207.5 732.6 268.6)" fill="#F8DDD0" fill-opacity="0.85" style="mix-blend-mode:multiply" filter="url(#soft)"/><ellipse cx="746.4" cy="260.7" rx="16.1" ry="10.2" transform="rotate(273.3 746.4 260.7)" fill="#F8DDD0" fill-opacity="0.85" style="mix-blend-mode:multiply" filter="url(#soft)"/><ellipse cx="758.5" cy="268.4" rx="16.1" ry="10.2" transform="rotate(331.8 758.5 268.4)" fill="#F8DDD0" fill-opacity="0.85" style="mix-blend-mode:multiply" filter="url(#soft)"/><circle cx="745.6" cy="275.3" r="8.2" fill="#D8BFA3" fill-opacity="0.95"/><ellipse cx="720.7" cy="698.3" rx="16.1" ry="10.2" transform="rotate(20.2 720.7 698.3)" fill="#FFFBF6" fill-opacity="0.85" style="mix-blend-mode:multiply" filter="url(#soft)"/><ellipse cx="711.6" cy="707.1" rx="16.1" ry="10.2" transform="rotate(71.5 711.6 707.1)" fill="#FFFBF6" fill-opacity="0.85" style="mix-blend-mode:multiply" filter="url(#soft)"/><ellipse cx="697.1" cy="704.0" rx="16.1" ry="10.2" transform="rotate(132.7 697.1 704.0)" fill="#FFFBF6" fill-opacity="0.85" style="mix-blend-mode:multiply" filter="url(#soft)"/><ellipse cx="692.7" cy="690.2" rx="16.1" ry="10.2" transform="rotate(192.1 692.7 690.2)" fill="#FFFBF6" fill-opacity="0.85" style="mix-blend-mode:multiply" filter="url(#soft)"/><ellipse cx="703.7" cy="679.0" rx="16.1" ry="10.2" transform="rotate(256.8 703.7 679.0)" fill="#FFFBF6" fill-opacity="0.85" style="mix-blend-mode:multiply" filter="url(#soft)"/><ellipse cx="718.3" cy="684.0" rx="16.1" ry="10.2" transform="rotate(320.7 718.3 684.0)" fill="#FFFBF6" fill-opacity="0.85" style="mix-blend-mode:multiply" filter="url(#soft)"/><circle cx="707.0" cy="693.2" r="8.2" fill="#D8BFA3" fill-opacity="0.95"/>
  <rect width="900" height="1200" fill="url(#vig43)"/>
  <rect x="27.0" y="36.0" width="846.0" height="1128.0" fill="none" stroke="#5B1F2A" stroke-opacity="0.28" stroke-width="1.5"/>
</svg>