<svg xmlns="http://www.w3.org/2000/svg" viewBox="0 0 1000 1300" width="1000" height="1300" role="img" aria-label="Decorative botanical placeholder">
  
    <defs>
      <linearGradient id="g15" x1="0%" y1="0%" x2="100%" y2="100%">
        <stop offset="0%" stop-color="#D8BFA3" stop-opacity="0.65"/>
        <stop offset="100%" stop-color="#FBF3EC" stop-opacity="1"/>
      </linearGradient>
      <radialGradient id="vg15" cx="50%" cy="45%" r="72%">
        <stop offset="60%" stop-color="#000000" stop-opacity="0"/>
        <stop offset="100%" stop-color="#000000" stop-opacity="0.10"/>
      </radialGradient>
      <radialGradient id="hg15" cx="28%" cy="18%" r="65%">
        <stop offset="0%" stop-color="#FFFFFF" stop-opacity="0.30"/>
        <stop offset="100%" stop-color="#FFFFFF" stop-opacity="0"/>
      </radialGradient>
    </defs>
    
  <rect width="1000" height="1300" fill="url(#g15)"/>
  <rect width="1000" height="1300" fill="url(#hg15)"/>
  <path d="M120.0,1144.0 L159.1,1107.4 L196.6,1069.9 L232.5,1031.6 L266.8,992.4 L299.4,952.3 L330.5,911.4 L359.9,869.6 L387.8,827.0 L414.0,783.5 L438.6,739.2 L461.6,694.0 L483.0,647.9 L502.8,601.0 L520.9,553.3 L537.5,504.7 L552.4,455.2 L565.7,404.8 L577.4,353.6 L587.6,301.6 L596.0,248.7" fill="none" stroke="#5B1F2A" stroke-width="3.0" stroke-opacity="0.70" stroke-linecap="round"/><path d="M196.6,1069.9 Q181.5,1055.4 162.1,1057.3 Q175.8,1071.3 196.6,1069.9 Z" fill="#6D7659" fill-opacity="0.35"/><line x1="196.6" y1="1069.9" x2="162.1" y2="1057.3" stroke="#6D7659" stroke-opacity="0.50" stroke-width="1.0"/><path d="M266.8,992.4 Q268.8,1021.2 290.5,1037.3 Q289.5,1010.3 266.8,992.4 Z" fill="#5B1F2A" fill-opacity="0.37"/><line x1="266.8" y1="992.4" x2="290.5" y2="1037.3" stroke="#5B1F2A" stroke-opacity="0.52" stroke-width="1.4"/><path d="M330.5,911.4 Q311.9,889.5 285.0,889.5 Q301.8,910.5 330.5,911.4 Z" fill="#6D7659" fill-opacity="0.40"/><line x1="330.5" y1="911.4" x2="285.0" y2="889.5" stroke="#6D7659" stroke-opacity="0.55" stroke-width="1.4"/><path d="M387.8,827.0 Q396.8,848.3 417.4,854.8 Q409.6,834.6 387.8,827.0 Z" fill="#5B1F2A" fill-opacity="0.42"/><line x1="387.8" y1="827.0" x2="417.4" y2="854.8" stroke="#5B1F2A" stroke-opacity="0.57" stroke-width="1.1"/><path d="M438.6,739.2 Q414.2,718.3 384.5,723.0 Q406.8,743.2 438.6,739.2 Z" fill="#6D7659" fill-opacity="0.44"/><line x1="438.6" y1="739.2" x2="384.5" y2="723.0" stroke="#6D7659" stroke-opacity="0.59" stroke-width="1.6"/><path d="M483.0,647.9 Q502.0,674.4 532.4,677.0 Q515.4,651.7 483.0,647.9 Z" fill="#5B1F2A" fill-opacity="0.46"/><line x1="483.0" y1="647.9" x2="532.4" y2="677.0" stroke="#5B1F2A" stroke-opacity="0.61" stroke-width="1.6"/><path d="M520.9,553.3 Q497.8,538.7 473.5,546.3 Q494.6,560.6 520.9,553.3 Z" fill="#6D7659" fill-opacity="0.48"/><line x1="520.9" y1="553.3" x2="473.5" y2="546.3" stroke="#6D7659" stroke-opacity="0.63" stroke-width="1.3"/><path d="M552.4,455.2 Q571.6,480.7 601.5,482.5 Q584.2,458.1 552.4,455.2 Z" fill="#5B1F2A" fill-opacity="0.51"/><line x1="552.4" y1="455.2" x2="601.5" y2="482.5" stroke="#5B1F2A" stroke-opacity="0.66" stroke-width="1.5"/><path d="M577.4,353.6 Q539.1,338.4 504.9,356.3 Q540.3,371.7 577.4,353.6 Z" fill="#6D7659" fill-opacity="0.53"/><line x1="577.4" y1="353.6" x2="504.9" y2="356.3" stroke="#6D7659" stroke-opacity="0.68" stroke-width="2.0"/><path d="M596.0,248.7 Q604.4,215.7 585.9,189.8 Q577.2,220.4 596.0,248.7 Z" fill="#5B1F2A" fill-opacity="0.55"/><line x1="596.0" y1="248.7" x2="585.9" y2="189.8" stroke="#5B1F2A" stroke-opacity="0.70" stroke-width="1.7"/><path d="M596.0,248.7 Q614.1,219.9 604.6,189.5 Q586.8,215.9 596.0,248.7 Z" fill="#6D7659" fill-opacity="0.55"/><line x1="596.0" y1="248.7" x2="604.6" y2="189.5" stroke="#6D7659" stroke-opacity="0.70" stroke-width="1.7"/><path d="M596.0,248.7 Q622.2,226.9 622.4,195.0 Q597.4,214.7 596.0,248.7 Z" fill="#5B1F2A" fill-opacity="0.55"/><line x1="596.0" y1="248.7" x2="622.4" y2="195.0" stroke="#5B1F2A" stroke-opacity="0.70" stroke-width="1.7"/><path d="M920.0,182.0 L912.9,215.0 L905.0,247.6 L896.2,279.8 L886.5,311.4 L876.0,342.6 L864.6,373.4 L852.4,403.7 L839.3,433.5 L825.3,462.9 L810.5,491.8 L794.8,520.3 L778.2,548.3 L760.8,575.9 L742.5,603.0 L723.4,629.6 L703.4,655.8 L682.6,681.5 L660.9,706.8 L638.3,731.6 L614.8,755.9" fill="none" stroke="#6D7659" stroke-width="2.1" stroke-opacity="0.47" stroke-linecap="round"/><path d="M893.1,290.4 Q908.4,300.9 925.3,296.4 Q911.2,286.1 893.1,290.4 Z" fill="#5B1F2A" fill-opacity="0.21"/><line x1="893.1" y1="290.4" x2="925.3" y2="296.4" stroke="#5B1F2A" stroke-opacity="0.36" stroke-width="1.0"/><path d="M856.5,393.6 Q850.7,377.4 835.6,371.7 Q840.6,387.0 856.5,393.6 Z" fill="#6D7659" fill-opacity="0.23"/><line x1="856.5" y1="393.6" x2="835.6" y2="371.7" stroke="#6D7659" stroke-opacity="0.38" stroke-width="1.0"/><path d="M810.5,491.8 Q823.3,503.5 839.4,501.4 Q827.7,490.2 810.5,491.8 Z" fill="#5B1F2A" fill-opacity="0.26"/><line x1="810.5" y1="491.8" x2="839.4" y2="501.4" stroke="#5B1F2A" stroke-opacity="0.41" stroke-width="1.0"/><path d="M754.8,585.0 Q746.0,568.0 728.6,564.0 Q736.3,580.1 754.8,585.0 Z" fill="#6D7659" fill-opacity="0.28"/><line x1="754.8" y1="585.0" x2="728.6" y2="564.0" stroke="#6D7659" stroke-opacity="0.43" stroke-width="1.0"/><path d="M689.6,673.0 Q705.3,695.6 730.9,698.3 Q716.9,676.6 689.6,673.0 Z" fill="#5B1F2A" fill-opacity="0.30"/><line x1="689.6" y1="673.0" x2="730.9" y2="698.3" stroke="#5B1F2A" stroke-opacity="0.45" stroke-width="1.3"/><path d="M614.8,755.9 Q596.5,770.9 596.2,793.1 Q613.7,779.6 614.8,755.9 Z" fill="#6D7659" fill-opacity="0.32"/><line x1="614.8" y1="755.9" x2="596.2" y2="793.1" stroke="#6D7659" stroke-opacity="0.47" stroke-width="1.2"/><path d="M614.8,755.9 Q592.8,764.5 585.6,785.5 Q606.5,778.0 614.8,755.9 Z" fill="#5B1F2A" fill-opacity="0.32"/><line x1="614.8" y1="755.9" x2="585.6" y2="785.5" stroke="#5B1F2A" stroke-opacity="0.47" stroke-width="1.2"/><path d="M614.8,755.9 Q591.2,757.3 577.9,775.0 Q600.0,774.4 614.8,755.9 Z" fill="#6D7659" fill-opacity="0.32"/><line x1="614.8" y1="755.9" x2="577.9" y2="775.0" stroke="#6D7659" stroke-opacity="0.47" stroke-width="1.2"/>
  <rect width="1000" height="1300" fill="url(#vg15)"/>
  <rect x="35.0" y="45.5" width="930.0" height="1209.0" fill="none" stroke="#5B1F2A" stroke-opacity="0.35" stroke-width="1.8"/>
  
</svg>