<svg xmlns="http://www.w3.org/2000/svg" viewBox="0 0 900 1100" width="900" height="1100" role="img" aria-label="Botanical illustration">
  <defs>
<filter id="soft" x="-60%" y="-60%" width="220%" height="220%">
  <feGaussianBlur stdDeviation="1.1"/>
</filter>
<linearGradient id="bg16" x1="0%" y1="0%" x2="100%" y2="100%"><stop offset="0%" stop-color="#9AA483"/><stop offset="55%" stop-color="#6D7659"/><stop offset="100%" stop-color="#D8BFA3"/></linearGradient><radialGradient id="light16" cx="28%" cy="18%" r="70%"><stop offset="0%" stop-color="#FFFFFF" stop-opacity="0.30"/><stop offset="100%" stop-color="#FFFFFF" stop-opacity="0"/></radialGradient><radialGradient id="vig16" cx="50%" cy="52%" r="75%"><stop offset="60%" stop-color="#000000" stop-opacity="0"/><stop offset="100%" stop-color="#000000" stop-opacity="0.10"/></radialGradient></defs>
  <rect width="900" height="1100" fill="url(#bg16)"/>
  <rect width="900" height="1100" fill="url(#light16)"/>
  <path d="M702.0,286.0 L682.6,304.3 L663.5,322.8 L644.9,341.6 L626.7,360.6 L608.8,379.9 L591.4,399.5 L574.3,419.4 L557.7,439.5 L541.4,459.9 L525.6,480.5 L510.1,501.5 L495.1,522.7 L480.4,544.1 L466.2,565.8 L452.3,587.8 L438.9,610.1 L425.8,632.6 L413.2,655.4 L400.9,678.5 L389.0,701.8 L377.6,725.4 L366.5,749.2 L355.8,773.4 L345.6,797.7 L335.7,822.4 L326.2,847.3" fill="none" stroke="#57603F" stroke-width="6.7" stroke-opacity="0.65" stroke-linecap="round" filter="url(#soft)"/><ellipse cx="642.2" cy="386.3" rx="32.9" ry="14.8" transform="rotate(71.5 642.2 386.3)" fill="#6D7659" fill-opacity="0.62" style="mix-blend-mode:multiply" filter="url(#soft)"/><line x1="631.8" y1="355.1" x2="652.6" y2="417.5" stroke="#6D7659" stroke-opacity="0.77" stroke-width="1.8"/><ellipse cx="517.6" cy="426.3" rx="49.6" ry="22.3" transform="rotate(182.0 517.6 426.3)" fill="#9AA483" fill-opacity="0.62" style="mix-blend-mode:multiply" filter="url(#soft)"/><line x1="567.1" y1="428.0" x2="468.0" y2="424.6" stroke="#9AA483" stroke-opacity="0.77" stroke-width="2.7"/><ellipse cx="529.5" cy="541.8" rx="43.1" ry="19.4" transform="rotate(60.1 529.5 541.8)" fill="#57603F" fill-opacity="0.62" style="mix-blend-mode:multiply" filter="url(#soft)"/><line x1="508.0" y1="504.5" x2="551.0" y2="579.2" stroke="#57603F" stroke-opacity="0.77" stroke-width="2.3"/><ellipse cx="400.0" cy="579.2" rx="54.5" ry="24.5" transform="rotate(185.8 400.0 579.2)" fill="#6D7659" fill-opacity="0.62" style="mix-blend-mode:multiply" filter="url(#soft)"/><line x1="454.3" y1="584.7" x2="345.7" y2="573.7" stroke="#6D7659" stroke-opacity="0.77" stroke-width="2.9"/><ellipse cx="433.4" cy="715.9" rx="54.6" ry="24.6" transform="rotate(60.0 433.4 715.9)" fill="#9AA483" fill-opacity="0.62" style="mix-blend-mode:multiply" filter="url(#soft)"/><line x1="406.1" y1="668.5" x2="460.7" y2="763.2" stroke="#9AA483" stroke-opacity="0.77" stroke-width="3.0"/><ellipse cx="313.7" cy="759.4" rx="49.8" ry="22.4" transform="rotate(176.2 313.7 759.4)" fill="#57603F" fill-opacity="0.62" style="mix-blend-mode:multiply" filter="url(#soft)"/><line x1="363.4" y1="756.1" x2="264.0" y2="762.6" stroke="#57603F" stroke-opacity="0.77" stroke-width="2.7"/><path d="M702.0,286.0 L678.5,300.2 L655.5,314.9 L632.9,330.0 L610.8,345.4 L589.1,361.3 L567.9,377.6 L547.1,394.3 L526.7,411.5 L506.8,429.0 L487.4,447.0 L468.4,465.3 L449.8,484.1 L431.7,503.3 L414.1,522.9 L396.9,542.9 L380.1,563.3 L363.8,584.2 L347.9,605.4 L332.5,627.1 L317.5,649.2 L303.0,671.7 L288.9,694.6 L275.3,717.9 L262.1,741.6 L249.4,765.8 L237.1,790.3" fill="none" stroke="#57603F" stroke-width="6.7" stroke-opacity="0.65" stroke-linecap="round" filter="url(#soft)"/><ellipse cx="622.5" cy="376.4" rx="35.8" ry="16.1" transform="rotate(81.3 622.5 376.4)" fill="#6D7659" fill-opacity="0.62" style="mix-blend-mode:multiply" filter="url(#soft)"/><line x1="617.1" y1="341.0" x2="627.9" y2="411.8" stroke="#6D7659" stroke-opacity="0.77" stroke-width="1.9"/><ellipse cx="498.3" cy="394.4" rx="40.6" ry="18.3" transform="rotate(190.2 498.3 394.4)" fill="#9AA483" fill-opacity="0.62" style="mix-blend-mode:multiply" filter="url(#soft)"/><line x1="538.3" y1="401.6" x2="458.3" y2="387.3" stroke="#9AA483" stroke-opacity="0.77" stroke-width="2.2"/><ellipse cx="472.8" cy="513.3" rx="45.9" ry="20.7" transform="rotate(81.1 472.8 513.3)" fill="#57603F" fill-opacity="0.62" style="mix-blend-mode:multiply" filter="url(#soft)"/><line x1="465.7" y1="468.0" x2="479.9" y2="558.7" stroke="#57603F" stroke-opacity="0.77" stroke-width="2.5"/><ellipse cx="352.8" cy="535.0" rx="46.8" ry="21.1" transform="rotate(186.2 352.8 535.0)" fill="#6D7659" fill-opacity="0.62" style="mix-blend-mode:multiply" filter="url(#soft)"/><line x1="399.3" y1="540.0" x2="306.2" y2="530.0" stroke="#6D7659" stroke-opacity="0.77" stroke-width="2.5"/><ellipse cx="364.1" cy="669.3" rx="57.3" ry="25.8" transform="rotate(64.1 364.1 669.3)" fill="#9AA483" fill-opacity="0.62" style="mix-blend-mode:multiply" filter="url(#soft)"/><line x1="339.1" y1="617.8" x2="389.1" y2="720.7" stroke="#9AA483" stroke-opacity="0.77" stroke-width="3.1"/><ellipse cx="237.7" cy="707.8" rx="47.8" ry="21.5" transform="rotate(172.1 237.7 707.8)" fill="#57603F" fill-opacity="0.62" style="mix-blend-mode:multiply" filter="url(#soft)"/><line x1="285.0" y1="701.2" x2="190.4" y2="714.4" stroke="#57603F" stroke-opacity="0.77" stroke-width="2.6"/><path d="M702.0,286.0 L673.9,291.0 L646.1,296.7 L618.7,303.1 L591.7,310.1 L565.0,317.7 L538.7,326.0 L512.7,335.0 L487.2,344.6 L462.0,354.9 L437.1,365.8 L412.6,377.4 L388.5,389.6 L364.8,402.5 L341.4,416.0 L318.4,430.2 L295.7,445.0 L273.5,460.5 L251.5,476.6 L230.0,493.4 L208.8,510.8 L188.0,528.9 L167.5,547.7 L147.4,567.1 L127.7,587.1 L108.3,607.8 L89.3,629.2" fill="none" stroke="#57603F" stroke-width="6.7" stroke-opacity="0.65" stroke-linecap="round" filter="url(#soft)"/><ellipse cx="587.2" cy="340.2" rx="34.4" ry="15.5" transform="rotate(110.7 587.2 340.2)" fill="#6D7659" fill-opacity="0.62" style="mix-blend-mode:multiply" filter="url(#soft)"/><line x1="599.3" y1="308.0" x2="575.0" y2="372.4" stroke="#6D7659" stroke-opacity="0.77" stroke-width="1.9"/><ellipse cx="470.3" cy="309.9" rx="42.8" ry="19.3" transform="rotate(222.8 470.3 309.9)" fill="#9AA483" fill-opacity="0.62" style="mix-blend-mode:multiply" filter="url(#soft)"/><line x1="501.7" y1="339.0" x2="438.9" y2="280.8" stroke="#9AA483" stroke-opacity="0.77" stroke-width="2.3"/><ellipse cx="407.6" cy="426.2" rx="47.2" ry="21.2" transform="rotate(91.9 407.6 426.2)" fill="#57603F" fill-opacity="0.62" style="mix-blend-mode:multiply" filter="url(#soft)"/><line x1="409.2" y1="379.1" x2="406.1" y2="473.4" stroke="#57603F" stroke-opacity="0.77" stroke-width="2.5"/><ellipse cx="278.4" cy="399.9" rx="51.7" ry="23.3" transform="rotate(213.1 278.4 399.9)" fill="#6D7659" fill-opacity="0.62" style="mix-blend-mode:multiply" filter="url(#soft)"/><line x1="321.7" y1="428.1" x2="235.1" y2="371.7" stroke="#6D7659" stroke-opacity="0.77" stroke-width="2.8"/><ellipse cx="247.3" cy="533.8" rx="48.4" ry="21.8" transform="rotate(80.3 247.3 533.8)" fill="#9AA483" fill-opacity="0.62" style="mix-blend-mode:multiply" filter="url(#soft)"/><line x1="239.2" y1="486.1" x2="255.4" y2="581.5" stroke="#9AA483" stroke-opacity="0.77" stroke-width="2.6"/><ellipse cx="116.8" cy="540.0" rx="46.8" ry="21.1" transform="rotate(196.3 116.8 540.0)" fill="#57603F" fill-opacity="0.62" style="mix-blend-mode:multiply" filter="url(#soft)"/><line x1="161.7" y1="553.1" x2="71.8" y2="526.9" stroke="#57603F" stroke-opacity="0.77" stroke-width="2.5"/><path d="M702.0,286.0 L689.1,304.1 L676.9,322.4 L665.3,340.9 L654.3,359.5 L644.0,378.3 L634.4,397.2 L625.4,416.3 L617.0,435.5 L609.3,454.9 L602.3,474.4 L595.8,494.1 L590.1,514.0 L585.0,534.0 L580.5,554.1 L576.7,574.4 L573.5,594.9 L571.0,615.5 L569.2,636.3 L567.9,657.2 L567.4,678.3 L567.5,699.5 L568.2,720.9 L569.6,742.5 L571.6,764.2 L574.3,786.0 L577.6,808.0" fill="none" stroke="#57603F" stroke-width="6.7" stroke-opacity="0.65" stroke-linecap="round" filter="url(#soft)"/><ellipse cx="677.7" cy="382.6" rx="34.9" ry="15.7" transform="rotate(54.4 677.7 382.6)" fill="#6D7659" fill-opacity="0.62" style="mix-blend-mode:multiply" filter="url(#soft)"/><line x1="657.4" y1="354.2" x2="698.0" y2="411.0" stroke="#6D7659" stroke-opacity="0.77" stroke-width="1.9"/><ellipse cx="577.1" cy="431.7" rx="45.2" ry="20.3" transform="rotate(170.8 577.1 431.7)" fill="#9AA483" fill-opacity="0.62" style="mix-blend-mode:multiply" filter="url(#soft)"/><line x1="621.7" y1="424.5" x2="532.5" y2="438.9" stroke="#9AA483" stroke-opacity="0.77" stroke-width="2.4"/><ellipse cx="627.2" cy="529.0" rx="45.4" ry="20.4" transform="rotate(44.9 627.2 529.0)" fill="#57603F" fill-opacity="0.62" style="mix-blend-mode:multiply" filter="url(#soft)"/><line x1="595.0" y1="496.9" x2="659.3" y2="561.0" stroke="#57603F" stroke-opacity="0.77" stroke-width="2.5"/><ellipse cx="539.6" cy="585.6" rx="40.2" ry="18.1" transform="rotate(159.4 539.6 585.6)" fill="#6D7659" fill-opacity="0.62" style="mix-blend-mode:multiply" filter="url(#soft)"/><line x1="577.2" y1="571.5" x2="501.9" y2="599.8" stroke="#6D7659" stroke-opacity="0.77" stroke-width="2.2"/><ellipse cx="605.3" cy="681.9" rx="49.9" ry="22.5" transform="rotate(42.4 605.3 681.9)" fill="#9AA483" fill-opacity="0.62" style="mix-blend-mode:multiply" filter="url(#soft)"/><line x1="568.4" y1="648.2" x2="642.1" y2="715.5" stroke="#9AA483" stroke-opacity="0.77" stroke-width="2.7"/><ellipse cx="516.4" cy="757.4" rx="60.3" ry="27.1" transform="rotate(149.8 516.4 757.4)" fill="#57603F" fill-opacity="0.62" style="mix-blend-mode:multiply" filter="url(#soft)"/><line x1="568.5" y1="727.1" x2="464.3" y2="787.6" stroke="#57603F" stroke-opacity="0.77" stroke-width="3.3"/><ellipse cx="464.3" cy="557.1" rx="51.6" ry="33.4" transform="rotate(267.5 464.3 557.1)" fill="#F8DDD0" fill-opacity="0.60" style="mix-blend-mode:multiply" filter="url(#soft)"/><ellipse cx="543.5" cy="607.2" rx="51.6" ry="33.4" transform="rotate(337.2 543.5 607.2)" fill="#F8DDD0" fill-opacity="0.60" style="mix-blend-mode:multiply" filter="url(#soft)"/><ellipse cx="541.0" cy="676.1" rx="51.6" ry="33.4" transform="rotate(386.9 541.0 676.1)" fill="#F8DDD0" fill-opacity="0.60" style="mix-blend-mode:multiply" filter="url(#soft)"/><ellipse cx="453.7" cy="719.8" rx="51.6" ry="33.4" transform="rotate(459.9 453.7 719.8)" fill="#F8DDD0" fill-opacity="0.60" style="mix-blend-mode:multiply" filter="url(#soft)"/><ellipse cx="391.3" cy="668.3" rx="51.6" ry="33.4" transform="rotate(519.1 391.3 668.3)" fill="#F8DDD0" fill-opacity="0.60" style="mix-blend-mode:multiply" filter="url(#soft)"/><ellipse cx="403.2" cy="588.6" rx="51.6" ry="33.4" transform="rotate(577.9 403.2 588.6)" fill="#F8DDD0" fill-opacity="0.60" style="mix-blend-mode:multiply" filter="url(#soft)"/><ellipse cx="498.5" cy="586.5" rx="41.0" ry="27.3" transform="rotate(300.2 498.5 586.5)" fill="#F2C6B4" fill-opacity="0.60" style="mix-blend-mode:multiply" filter="url(#soft)"/><ellipse cx="527.7" cy="649.4" rx="41.0" ry="27.3" transform="rotate(369.8 527.7 649.4)" fill="#F2C6B4" fill-opacity="0.60" style="mix-blend-mode:multiply" filter="url(#soft)"/><ellipse cx="500.1" cy="690.5" rx="41.0" ry="27.3" transform="rotate(417.9 500.1 690.5)" fill="#F2C6B4" fill-opacity="0.60" style="mix-blend-mode:multiply" filter="url(#soft)"/><ellipse cx="439.0" cy="692.5" rx="41.0" ry="27.3" transform="rotate(478.4 439.0 692.5)" fill="#F2C6B4" fill-opacity="0.60" style="mix-blend-mode:multiply" filter="url(#soft)"/><ellipse cx="407.1" cy="638.8" rx="41.0" ry="27.3" transform="rotate(540.2 407.1 638.8)" fill="#F2C6B4" fill-opacity="0.60" style="mix-blend-mode:multiply" filter="url(#soft)"/><ellipse cx="440.9" cy="584.6" rx="41.0" ry="27.3" transform="rotate(603.6 440.9 584.6)" fill="#F2C6B4" fill-opacity="0.60" style="mix-blend-mode:multiply" filter="url(#soft)"/><ellipse cx="504.2" cy="617.0" rx="30.4" ry="21.3" transform="rotate(328.8 504.2 617.0)" fill="#E3A98F" fill-opacity="0.58" style="mix-blend-mode:multiply" filter="url(#soft)"/><ellipse cx="496.1" cy="670.9" rx="30.4" ry="21.3" transform="rotate(408.5 496.1 670.9)" fill="#E3A98F" fill-opacity="0.58" style="mix-blend-mode:multiply" filter="url(#soft)"/><ellipse cx="448.0" cy="676.6" rx="30.4" ry="21.3" transform="rotate(477.8 448.0 676.6)" fill="#E3A98F" fill-opacity="0.58" style="mix-blend-mode:multiply" filter="url(#soft)"/><ellipse cx="425.4" cy="636.2" rx="30.4" ry="21.3" transform="rotate(543.8 425.4 636.2)" fill="#E3A98F" fill-opacity="0.58" style="mix-blend-mode:multiply" filter="url(#soft)"/><ellipse cx="459.4" cy="597.3" rx="30.4" ry="21.3" transform="rotate(618.5 459.4 597.3)" fill="#E3A98F" fill-opacity="0.58" style="mix-blend-mode:multiply" filter="url(#soft)"/><circle cx="467.9" cy="639.0" r="27.3" fill="#8C4452" fill-opacity="0.9" filter="url(#soft)"/><circle cx="467.9" cy="639.0" r="12.2" fill="#D8BFA3" fill-opacity="0.7"/><ellipse cx="296.5" cy="812.2" rx="44.8" ry="29.0" transform="rotate(209.1 296.5 812.2)" fill="#E3A98F" fill-opacity="0.60" style="mix-blend-mode:multiply" filter="url(#soft)"/><ellipse cx="363.8" cy="775.8" rx="44.8" ry="29.0" transform="rotate(274.2 363.8 775.8)" fill="#E3A98F" fill-opacity="0.60" style="mix-blend-mode:multiply" filter="url(#soft)"/><ellipse cx="419.6" cy="810.2" rx="44.8" ry="29.0" transform="rotate(329.1 419.6 810.2)" fill="#E3A98F" fill-opacity="0.60" style="mix-blend-mode:multiply" filter="url(#soft)"/><ellipse cx="420.5" cy="881.7" rx="44.8" ry="29.0" transform="rotate(389.5 420.5 881.7)" fill="#E3A98F" fill-opacity="0.60" style="mix-blend-mode:multiply" filter="url(#soft)"/><ellipse cx="357.1" cy="917.8" rx="44.8" ry="29.0" transform="rotate(451.2 357.1 917.8)" fill="#E3A98F" fill-opacity="0.60" style="mix-blend-mode:multiply" filter="url(#soft)"/><ellipse cx="294.9" cy="878.1" rx="44.8" ry="29.0" transform="rotate(513.8 294.9 878.1)" fill="#E3A98F" fill-opacity="0.60" style="mix-blend-mode:multiply" filter="url(#soft)"/><ellipse cx="337.4" cy="798.5" rx="35.5" ry="23.7" transform="rotate(246.3 337.4 798.5)" fill="#B97A85" fill-opacity="0.60" style="mix-blend-mode:multiply" filter="url(#soft)"/><ellipse cx="391.6" cy="805.6" rx="35.5" ry="23.7" transform="rotate(308.7 391.6 805.6)" fill="#B97A85" fill-opacity="0.60" style="mix-blend-mode:multiply" filter="url(#soft)"/><ellipse cx="411.1" cy="850.5" rx="35.5" ry="23.7" transform="rotate(364.1 411.1 850.5)" fill="#B97A85" fill-opacity="0.60" style="mix-blend-mode:multiply" filter="url(#soft)"/><ellipse cx="385.6" cy="891.9" rx="35.5" ry="23.7" transform="rotate(419.2 385.6 891.9)" fill="#B97A85" fill-opacity="0.60" style="mix-blend-mode:multiply" filter="url(#soft)"/><ellipse cx="330.4" cy="891.1" rx="35.5" ry="23.7" transform="rotate(482.4 330.4 891.1)" fill="#B97A85" fill-opacity="0.60" style="mix-blend-mode:multiply" filter="url(#soft)"/><ellipse cx="306.1" cy="849.9" rx="35.5" ry="23.7" transform="rotate(536.5 306.1 849.9)" fill="#B97A85" fill-opacity="0.60" style="mix-blend-mode:multiply" filter="url(#soft)"/><ellipse cx="361.8" cy="810.0" rx="26.3" ry="18.4" transform="rotate(274.9 361.8 810.0)" fill="#8C4452" fill-opacity="0.58" style="mix-blend-mode:multiply" filter="url(#soft)"/><ellipse cx="394.8" cy="839.8" rx="26.3" ry="18.4" transform="rotate(349.2 394.8 839.8)" fill="#8C4452" fill-opacity="0.58" style="mix-blend-mode:multiply" filter="url(#soft)"/><ellipse cx="378.3" cy="877.9" rx="26.3" ry="18.4" transform="rotate(417.8 378.3 877.9)" fill="#8C4452" fill-opacity="0.58" style="mix-blend-mode:multiply" filter="url(#soft)"/><ellipse cx="332.2" cy="872.4" rx="26.3" ry="18.4" transform="rotate(495.8 332.2 872.4)" fill="#8C4452" fill-opacity="0.58" style="mix-blend-mode:multiply" filter="url(#soft)"/><ellipse cx="325.8" cy="829.8" rx="26.3" ry="18.4" transform="rotate(567.2 325.8 829.8)" fill="#8C4452" fill-opacity="0.58" style="mix-blend-mode:multiply" filter="url(#soft)"/><circle cx="358.6" cy="846.7" r="23.7" fill="#5B1F2A" fill-opacity="0.9" filter="url(#soft)"/><circle cx="358.6" cy="846.7" r="10.5" fill="#D8BFA3" fill-opacity="0.7"/><ellipse cx="64.9" cy="448.5" rx="16.1" ry="10.2" transform="rotate(36.7 64.9 448.5)" fill="#FFFBF6" fill-opacity="0.85" style="mix-blend-mode:multiply" filter="url(#soft)"/><ellipse cx="53.3" cy="454.4" rx="16.1" ry="10.2" transform="rotate(89.3 53.3 454.4)" fill="#FFFBF6" fill-opacity="0.85" style="mix-blend-mode:multiply" filter="url(#soft)"/><ellipse cx="40.0" cy="446.3" rx="16.1" ry="10.2" transform="rotate(153.7 40.0 446.3)" fill="#FFFBF6" fill-opacity="0.85" style="mix-blend-mode:multiply" filter="url(#soft)"/><ellipse cx="41.4" cy="431.1" rx="16.1" ry="10.2" transform="rotate(216.3 41.4 431.1)" fill="#FFFBF6" fill-opacity="0.85" style="mix-blend-mode:multiply" filter="url(#soft)"/><ellipse cx="52.1" cy="425.2" rx="16.1" ry="10.2" transform="rotate(265.8 52.1 425.2)" fill="#FFFBF6" fill-opacity="0.85" style="mix-blend-mode:multiply" filter="url(#soft)"/><ellipse cx="66.2" cy="433.2" rx="16.1" ry="10.2" transform="rotate(333.1 66.2 433.2)" fill="#FFFBF6" fill-opacity="0.85" style="mix-blend-mode:multiply" filter="url(#soft)"/><circle cx="53.1" cy="439.8" r="8.2" fill="#D8BFA3" fill-opacity="0.95"/><ellipse cx="445.0" cy="720.5" rx="16.1" ry="10.2" transform="rotate(10.7 445.0 720.5)" fill="#F8DDD0" fill-opacity="0.85" style="mix-blend-mode:multiply" filter="url(#soft)"/><ellipse cx="436.6" cy="731.1" rx="16.1" ry="10.2" transform="rotate(65.7 436.6 731.1)" fill="#F8DDD0" fill-opacity="0.85" style="mix-blend-mode:multiply" filter="url(#soft)"/><ellipse cx="421.0" cy="728.8" rx="16.1" ry="10.2" transform="rotate(131.1 421.0 728.8)" fill="#F8DDD0" fill-opacity="0.85" style="mix-blend-mode:multiply" filter="url(#soft)"/><ellipse cx="416.5" cy="713.8" rx="16.1" ry="10.2" transform="rotate(195.8 416.5 713.8)" fill="#F8DDD0" fill-opacity="0.85" style="mix-blend-mode:multiply" filter="url(#soft)"/><ellipse cx="426.9" cy="703.6" rx="16.1" ry="10.2" transform="rotate(255.3 426.9 703.6)" fill="#F8DDD0" fill-opacity="0.85" style="mix-blend-mode:multiply" filter="url(#soft)"/><ellipse cx="440.1" cy="706.7" rx="16.1" ry="10.2" transform="rotate(310.8 440.1 706.7)" fill="#F8DDD0" fill-opacity="0.85" style="mix-blend-mode:multiply" filter="url(#soft)"/><circle cx="430.6" cy="717.8" r="8.2" fill="#D8BFA3" fill-opacity="0.95"/><ellipse cx="600.8" cy="900.5" rx="16.1" ry="10.2" transform="rotate(44.5 600.8 900.5)" fill="#FFFBF6" fill-opacity="0.85" style="mix-blend-mode:multiply" filter="url(#soft)"/><ellipse cx="588.6" cy="904.8" rx="16.1" ry="10.2" transform="rotate(97.2 588.6 904.8)" fill="#FFFBF6" fill-opacity="0.85" style="mix-blend-mode:multiply" filter="url(#soft)"/><ellipse cx="577.1" cy="896.4" rx="16.1" ry="10.2" transform="rotate(155.3 577.1 896.4)" fill="#FFFBF6" fill-opacity="0.85" style="mix-blend-mode:multiply" filter="url(#soft)"/><ellipse cx="579.1" cy="881.0" rx="16.1" ry="10.2" transform="rotate(219.5 579.1 881.0)" fill="#FFFBF6" fill-opacity="0.85" style="mix-blend-mode:multiply" filter="url(#soft)"/><ellipse cx="592.0" cy="875.7" rx="16.1" ry="10.2" transform="rotate(276.2 592.0 875.7)" fill="#FFFBF6" fill-opacity="0.85" style="mix-blend-mode:multiply" filter="url(#soft)"/><ellipse cx="604.1" cy="885.1" rx="16.1" ry="10.2" transform="rotate(339.5 604.1 885.1)" fill="#FFFBF6" fill-opacity="0.85" style="mix-blend-mode:multiply" filter="url(#soft)"/><circle cx="590.4" cy="890.2" r="8.2" fill="#D8BFA3" fill-opacity="0.95"/>
  <rect width="900" height="1100" fill="url(#vig16)"/>
  <rect x="27.0" y="33.0" width="846.0" height="1034.0" fill="none" stroke="#5B1F2A" stroke-opacity="0.28" stroke-width="1.5"/>
</svg>