<svg xmlns="http://www.w3.org/2000/svg" viewBox="0 0 800 800" width="800" height="800" role="img" aria-label="Decorative botanical placeholder">
  
    <defs>
      <linearGradient id="g36" x1="0%" y1="0%" x2="100%" y2="100%">
        <stop offset="0%" stop-color="#6D7659" stop-opacity="0.65"/>
        <stop offset="100%" stop-color="#8A9573" stop-opacity="1"/>
      </linearGradient>
      <radialGradient id="vg36" cx="50%" cy="45%" r="72%">
        <stop offset="60%" stop-color="#000000" stop-opacity="0"/>
        <stop offset="100%" stop-color="#000000" stop-opacity="0.10"/>
      </radialGradient>
      <radialGradient id="hg36" cx="28%" cy="18%" r="65%">
        <stop offset="0%" stop-color="#FFFFFF" stop-opacity="0.30"/>
        <stop offset="100%" stop-color="#FFFFFF" stop-opacity="0"/>
      </radialGradient>
    </defs>
    
  <rect width="800" height="800" fill="url(#g36)"/>
  <rect width="800" height="800" fill="url(#hg36)"/>
  <path d="M400.0,400.0 L415.6,393.0 L431.0,385.7 L446.2,378.1 L461.2,370.3 L476.0,362.1 L490.7,353.7 L505.1,345.1 L519.3,336.1 L533.4,326.9 L547.3,317.4 L560.9,307.6 L574.4,297.6 L587.7,287.3 L600.8,276.7 L613.7,265.8 L626.4,254.6 L638.9,243.2 L651.2,231.5 L663.3,219.5 L675.2,207.3" fill="none" stroke="#FBF3EC" stroke-width="2.6" stroke-opacity="0.73" stroke-linecap="round"/><path d="M451.2,375.5 Q444.4,361.1 430.0,357.1 Q435.9,370.8 451.2,375.5 Z" fill="#D8BFA3" fill-opacity="0.39"/><line x1="451.2" y1="375.5" x2="430.0" y2="357.1" stroke="#D8BFA3" stroke-opacity="0.54" stroke-width="1.0"/><path d="M500.3,348.0 Q495.4,370.6 508.6,387.9 Q513.8,366.8 500.3,348.0 Z" fill="#F2C6B4" fill-opacity="0.43"/><line x1="500.3" y1="348.0" x2="508.6" y2="387.9" stroke="#F2C6B4" stroke-opacity="0.58" stroke-width="1.1"/><path d="M547.3,317.4 Q534.4,298.0 512.8,295.4 Q524.3,313.9 547.3,317.4 Z" fill="#FBF3EC" fill-opacity="0.46"/><line x1="547.3" y1="317.4" x2="512.8" y2="295.4" stroke="#FBF3EC" stroke-opacity="0.61" stroke-width="1.1"/><path d="M592.1,283.8 Q592.5,308.2 610.2,322.8 Q610.5,299.9 592.1,283.8 Z" fill="#D8BFA3" fill-opacity="0.50"/><line x1="592.1" y1="283.8" x2="610.2" y2="322.8" stroke="#D8BFA3" stroke-opacity="0.65" stroke-width="1.2"/><path d="M634.7,247.0 Q613.1,222.4 582.3,222.8 Q601.9,246.5 634.7,247.0 Z" fill="#F2C6B4" fill-opacity="0.54"/><line x1="634.7" y1="247.0" x2="582.3" y2="222.8" stroke="#F2C6B4" stroke-opacity="0.69" stroke-width="1.6"/><path d="M675.2,207.3 Q697.8,188.1 697.8,160.4 Q676.1,177.7 675.2,207.3 Z" fill="#FBF3EC" fill-opacity="0.58"/><line x1="675.2" y1="207.3" x2="697.8" y2="160.4" stroke="#FBF3EC" stroke-opacity="0.73" stroke-width="1.4"/><path d="M675.2,207.3 Q702.6,196.0 711.2,169.7 Q685.2,179.4 675.2,207.3 Z" fill="#D8BFA3" fill-opacity="0.58"/><line x1="675.2" y1="207.3" x2="711.2" y2="169.7" stroke="#D8BFA3" stroke-opacity="0.73" stroke-width="1.4"/><path d="M675.2,207.3 Q704.7,205.0 721.0,182.6 Q693.4,183.9 675.2,207.3 Z" fill="#F2C6B4" fill-opacity="0.58"/><line x1="675.2" y1="207.3" x2="721.0" y2="182.6" stroke="#F2C6B4" stroke-opacity="0.73" stroke-width="1.4"/><path d="M400.0,400.0 L384.4,407.0 L369.0,414.3 L353.8,421.9 L338.8,429.7 L324.0,437.9 L309.3,446.3 L294.9,454.9 L280.7,463.9 L266.6,473.1 L252.7,482.6 L239.1,492.4 L225.6,502.4 L212.3,512.7 L199.2,523.3 L186.3,534.2 L173.6,545.4 L161.1,556.8 L148.8,568.5 L136.7,580.5 L124.8,592.7" fill="none" stroke="#F2C6B4" stroke-width="2.2" stroke-opacity="0.57" stroke-linecap="round"/><path d="M348.8,424.5 Q354.3,440.0 368.6,445.5 Q363.9,430.9 348.8,424.5 Z" fill="#D8BFA3" fill-opacity="0.28"/><line x1="348.8" y1="424.5" x2="368.6" y2="445.5" stroke="#D8BFA3" stroke-opacity="0.43" stroke-width="1.0"/><path d="M299.7,452.0 Q305.5,432.2 295.0,416.0 Q289.0,434.3 299.7,452.0 Z" fill="#FBF3EC" fill-opacity="0.31"/><line x1="299.7" y1="452.0" x2="295.0" y2="416.0" stroke="#FBF3EC" stroke-opacity="0.46" stroke-width="1.0"/><path d="M252.7,482.6 Q264.2,497.4 281.7,498.3 Q271.4,484.1 252.7,482.6 Z" fill="#F2C6B4" fill-opacity="0.34"/><line x1="252.7" y1="482.6" x2="281.7" y2="498.3" stroke="#F2C6B4" stroke-opacity="0.49" stroke-width="1.0"/><path d="M207.9,516.2 Q210.8,497.8 199.4,484.5 Q196.2,501.7 207.9,516.2 Z" fill="#D8BFA3" fill-opacity="0.36"/><line x1="207.9" y1="516.2" x2="199.4" y2="484.5" stroke="#D8BFA3" stroke-opacity="0.51" stroke-width="1.0"/><path d="M165.3,553.0 Q176.4,573.4 197.7,578.0 Q187.9,558.5 165.3,553.0 Z" fill="#FBF3EC" fill-opacity="0.39"/><line x1="165.3" y1="553.0" x2="197.7" y2="578.0" stroke="#FBF3EC" stroke-opacity="0.54" stroke-width="1.1"/><path d="M124.8,592.7 Q105.6,609.0 105.6,632.6 Q124.0,617.9 124.8,592.7 Z" fill="#F2C6B4" fill-opacity="0.42"/><line x1="124.8" y1="592.7" x2="105.6" y2="632.6" stroke="#F2C6B4" stroke-opacity="0.57" stroke-width="1.2"/><path d="M124.8,592.7 Q101.5,602.3 94.2,624.7 Q116.3,616.4 124.8,592.7 Z" fill="#D8BFA3" fill-opacity="0.42"/><line x1="124.8" y1="592.7" x2="94.2" y2="624.7" stroke="#D8BFA3" stroke-opacity="0.57" stroke-width="1.2"/><path d="M124.8,592.7 Q99.7,594.6 85.9,613.7 Q109.4,612.6 124.8,592.7 Z" fill="#FBF3EC" fill-opacity="0.42"/><line x1="124.8" y1="592.7" x2="85.9" y2="613.7" stroke="#FBF3EC" stroke-opacity="0.57" stroke-width="1.2"/>
  <rect width="800" height="800" fill="url(#vg36)"/>
  <rect x="28.0" y="28.0" width="744.0" height="744.0" fill="none" stroke="#FBF3EC" stroke-opacity="0.35" stroke-width="1.5"/>
  
</svg>