<svg xmlns="http://www.w3.org/2000/svg" viewBox="0 0 1600 1000" width="1600" height="1000" role="img" aria-label="Decorative botanical placeholder">
  
    <defs>
      <linearGradient id="g3" x1="0%" y1="0%" x2="100%" y2="100%">
        <stop offset="0%" stop-color="#6D7659" stop-opacity="0.65"/>
        <stop offset="100%" stop-color="#8A9573" stop-opacity="1"/>
      </linearGradient>
      <radialGradient id="vg3" cx="50%" cy="45%" r="72%">
        <stop offset="60%" stop-color="#000000" stop-opacity="0"/>
        <stop offset="100%" stop-color="#000000" stop-opacity="0.10"/>
      </radialGradient>
      <radialGradient id="hg3" cx="28%" cy="18%" r="65%">
        <stop offset="0%" stop-color="#FFFFFF" stop-opacity="0.30"/>
        <stop offset="100%" stop-color="#FFFFFF" stop-opacity="0"/>
      </radialGradient>
    </defs>
    
  <rect width="1600" height="1000" fill="url(#g3)"/>
  <rect width="1600" height="1000" fill="url(#hg3)"/>
  <path d="M96.0,620.0 L146.7,615.4 L197.0,609.7 L246.9,602.9 L296.5,594.9 L345.7,585.8 L394.5,575.6 L442.9,564.2 L491.0,551.7 L538.8,538.1 L586.1,523.3 L633.1,507.4 L679.7,490.4 L726.0,472.3 L771.9,453.0 L817.4,432.5 L862.5,411.0 L907.3,388.3 L951.7,364.5 L995.8,339.5 L1039.4,313.5" fill="none" stroke="#FBF3EC" stroke-width="3.0" stroke-opacity="0.70" stroke-linecap="round"/><path d="M187.8,610.8 Q192.1,587.0 177.7,569.6 Q173.1,591.7 187.8,610.8 Z" fill="#D8BFA3" fill-opacity="0.35"/><line x1="187.8" y1="610.8" x2="177.7" y2="569.6" stroke="#D8BFA3" stroke-opacity="0.50" stroke-width="1.2"/><path d="M278.5,597.9 Q265.7,617.7 272.1,638.8 Q284.5,620.7 278.5,597.9 Z" fill="#F2C6B4" fill-opacity="0.37"/><line x1="278.5" y1="597.9" x2="272.1" y2="638.8" stroke="#F2C6B4" stroke-opacity="0.52" stroke-width="1.1"/><path d="M367.9,581.3 Q369.8,552.9 350.8,534.2 Q348.2,560.7 367.9,581.3 Z" fill="#FBF3EC" fill-opacity="0.39"/><line x1="367.9" y1="581.3" x2="350.8" y2="534.2" stroke="#FBF3EC" stroke-opacity="0.54" stroke-width="1.4"/><path d="M456.1,560.9 Q441.9,583.7 449.4,607.6 Q463.4,586.7 456.1,560.9 Z" fill="#D8BFA3" fill-opacity="0.41"/><line x1="456.1" y1="560.9" x2="449.4" y2="607.6" stroke="#D8BFA3" stroke-opacity="0.56" stroke-width="1.3"/><path d="M543.1,536.8 Q539.6,512.3 520.1,499.8 Q522.6,522.8 543.1,536.8 Z" fill="#F2C6B4" fill-opacity="0.43"/><line x1="543.1" y1="536.8" x2="520.1" y2="499.8" stroke="#F2C6B4" stroke-opacity="0.58" stroke-width="1.2"/><path d="M628.8,508.9 Q625.1,536.5 642.5,556.0 Q646.8,530.3 628.8,508.9 Z" fill="#FBF3EC" fill-opacity="0.45"/><line x1="628.8" y1="508.9" x2="642.5" y2="556.0" stroke="#FBF3EC" stroke-opacity="0.60" stroke-width="1.4"/><path d="M713.4,477.3 Q707.0,453.1 685.8,443.0 Q691.2,465.8 713.4,477.3 Z" fill="#D8BFA3" fill-opacity="0.47"/><line x1="713.4" y1="477.3" x2="685.8" y2="443.0" stroke="#D8BFA3" stroke-opacity="0.62" stroke-width="1.2"/><path d="M796.7,442.0 Q786.2,468.5 798.6,492.2 Q809.3,467.6 796.7,442.0 Z" fill="#F2C6B4" fill-opacity="0.49"/><line x1="796.7" y1="442.0" x2="798.6" y2="492.2" stroke="#F2C6B4" stroke-opacity="0.64" stroke-width="1.4"/><path d="M878.9,402.9 Q873.5,376.4 851.5,364.2 Q855.7,389.0 878.9,402.9 Z" fill="#FBF3EC" fill-opacity="0.51"/><line x1="878.9" y1="402.9" x2="851.5" y2="364.2" stroke="#FBF3EC" stroke-opacity="0.66" stroke-width="1.3"/><path d="M959.8,360.0 Q945.3,396.4 962.4,428.9 Q977.0,395.2 959.8,360.0 Z" fill="#D8BFA3" fill-opacity="0.53"/><line x1="959.8" y1="360.0" x2="962.4" y2="428.9" stroke="#D8BFA3" stroke-opacity="0.68" stroke-width="1.9"/><path d="M1039.4,313.5 Q1070.1,298.8 1078.3,268.0 Q1049.2,280.8 1039.4,313.5 Z" fill="#FBF3EC" fill-opacity="0.55"/><line x1="1039.4" y1="313.5" x2="1078.3" y2="268.0" stroke="#FBF3EC" stroke-opacity="0.70" stroke-width="1.7"/><path d="M1039.4,313.5 Q1073.2,309.0 1090.4,282.2 Q1058.8,285.4 1039.4,313.5 Z" fill="#D8BFA3" fill-opacity="0.55"/><line x1="1039.4" y1="313.5" x2="1090.4" y2="282.2" stroke="#D8BFA3" stroke-opacity="0.70" stroke-width="1.7"/><path d="M1039.4,313.5 Q1072.9,319.6 1097.6,299.5 Q1066.5,292.8 1039.4,313.5 Z" fill="#F2C6B4" fill-opacity="0.55"/><line x1="1039.4" y1="313.5" x2="1097.6" y2="299.5" stroke="#F2C6B4" stroke-opacity="0.70" stroke-width="1.7"/><path d="M1568.0,320.0 L1537.2,334.9 L1506.2,349.1 L1475.1,362.6 L1443.7,375.6 L1412.2,387.8 L1380.6,399.4 L1348.7,410.4 L1316.7,420.7 L1284.5,430.4 L1252.1,439.4 L1219.6,447.8 L1186.9,455.5 L1154.0,462.6 L1120.9,469.0 L1087.7,474.8 L1054.3,479.9 L1020.7,484.4 L986.9,488.2 L953.0,491.4 L918.9,493.9" fill="none" stroke="#F2C6B4" stroke-width="2.2" stroke-opacity="0.49" stroke-linecap="round"/><path d="M1479.5,360.7 Q1486.1,379.3 1503.2,386.0 Q1497.7,368.4 1479.5,360.7 Z" fill="#D8BFA3" fill-opacity="0.22"/><line x1="1479.5" y1="360.7" x2="1503.2" y2="386.0" stroke="#D8BFA3" stroke-opacity="0.37" stroke-width="1.0"/><path d="M1389.6,396.2 Q1394.2,373.7 1380.9,356.7 Q1376.0,377.7 1389.6,396.2 Z" fill="#FBF3EC" fill-opacity="0.24"/><line x1="1389.6" y1="396.2" x2="1380.9" y2="356.7" stroke="#FBF3EC" stroke-opacity="0.39" stroke-width="1.1"/><path d="M1298.3,426.3 Q1298.5,448.4 1314.3,461.7 Q1314.7,441.0 1298.3,426.3 Z" fill="#F2C6B4" fill-opacity="0.26"/><line x1="1298.3" y1="426.3" x2="1314.3" y2="461.7" stroke="#F2C6B4" stroke-opacity="0.41" stroke-width="1.1"/><path d="M1205.6,451.2 Q1212.3,427.4 1199.4,408.1 Q1192.5,430.2 1205.6,451.2 Z" fill="#D8BFA3" fill-opacity="0.28"/><line x1="1205.6" y1="451.2" x2="1199.4" y2="408.1" stroke="#D8BFA3" stroke-opacity="0.43" stroke-width="1.2"/><path d="M1111.5,470.7 Q1108.2,496.6 1124.7,514.6 Q1128.4,490.5 1111.5,470.7 Z" fill="#FBF3EC" fill-opacity="0.30"/><line x1="1111.5" y1="470.7" x2="1124.7" y2="514.6" stroke="#FBF3EC" stroke-opacity="0.45" stroke-width="1.3"/><path d="M1015.9,485.0 Q1033.2,462.3 1027.6,436.1 Q1010.8,456.8 1015.9,485.0 Z" fill="#F2C6B4" fill-opacity="0.32"/><line x1="1015.9" y1="485.0" x2="1027.6" y2="436.1" stroke="#F2C6B4" stroke-opacity="0.47" stroke-width="1.4"/><path d="M918.9,493.9 Q893.8,492.9 877.8,510.3 Q901.3,511.9 918.9,493.9 Z" fill="#F2C6B4" fill-opacity="0.34"/><line x1="918.9" y1="493.9" x2="877.8" y2="510.3" stroke="#F2C6B4" stroke-opacity="0.49" stroke-width="1.2"/><path d="M918.9,493.9 Q895.3,485.2 874.8,496.8 Q896.6,505.6 918.9,493.9 Z" fill="#D8BFA3" fill-opacity="0.34"/><line x1="918.9" y1="493.9" x2="874.8" y2="496.8" stroke="#D8BFA3" stroke-opacity="0.49" stroke-width="1.2"/><path d="M918.9,493.9 Q899.1,478.4 876.1,483.0 Q894.1,498.1 918.9,493.9 Z" fill="#FBF3EC" fill-opacity="0.34"/><line x1="918.9" y1="493.9" x2="876.1" y2="483.0" stroke="#FBF3EC" stroke-opacity="0.49" stroke-width="1.2"/>
  <rect width="1600" height="1000" fill="url(#vg3)"/>
  <rect x="56.0" y="35.0" width="1488.0" height="930.0" fill="none" stroke="#FBF3EC" stroke-opacity="0.35" stroke-width="2.9"/>
  
</svg>