<svg xmlns="http://www.w3.org/2000/svg" viewBox="0 0 460 460" width="460" height="460" role="img" aria-hidden="true" focusable="false">
  <defs>
<filter id="soft" x="-60%" y="-60%" width="220%" height="220%">
  <feGaussianBlur stdDeviation="1.1"/>
</filter>
</defs>
  <path d="M46.0,414.0 L48.7,404.2 L51.2,394.3 L53.5,384.4 L55.7,374.5 L57.8,364.7 L59.8,354.8 L61.6,344.9 L63.2,334.9 L64.7,325.0 L66.1,315.1 L67.3,305.1 L68.4,295.2 L69.3,285.2 L70.1,275.2 L70.8,265.2 L71.3,255.2 L71.7,245.2 L71.9,235.2 L72.0,225.1 L71.9,215.1 L71.7,205.0 L71.4,195.0 L70.9,184.9 L70.2,174.8 L69.5,164.7 L68.5,154.6 L67.5,144.5 L66.3,134.4" fill="none" stroke="#57603F" stroke-width="3.6" stroke-opacity="0.6" stroke-linecap="round" filter="url(#soft)"/><ellipse cx="41.3" cy="360.8" rx="20.0" ry="9.2" transform="rotate(-136.4 41.3 360.8)" fill="#6D7659" fill-opacity="0.60" style="mix-blend-mode:multiply" filter="url(#soft)"/><line x1="55.7" y1="374.5" x2="26.8" y2="347.0" stroke="#6D7659" stroke-opacity="0.75" stroke-width="1.1"/><ellipse cx="84.1" cy="326.8" rx="22.4" ry="10.3" transform="rotate(-21.3 84.1 326.8)" fill="#9AA483" fill-opacity="0.60" style="mix-blend-mode:multiply" filter="url(#soft)"/><line x1="63.2" y1="334.9" x2="105.0" y2="318.6" stroke="#9AA483" stroke-opacity="0.75" stroke-width="1.2"/><ellipse cx="49.8" cy="276.7" rx="26.2" ry="12.0" transform="rotate(-135.3 49.8 276.7)" fill="#57603F" fill-opacity="0.60" style="mix-blend-mode:multiply" filter="url(#soft)"/><line x1="68.4" y1="295.2" x2="31.2" y2="258.3" stroke="#57603F" stroke-opacity="0.75" stroke-width="1.4"/><ellipse cx="90.9" cy="246.4" rx="21.5" ry="9.9" transform="rotate(-24.1 90.9 246.4)" fill="#6D7659" fill-opacity="0.60" style="mix-blend-mode:multiply" filter="url(#soft)"/><line x1="71.3" y1="255.2" x2="110.6" y2="237.7" stroke="#6D7659" stroke-opacity="0.75" stroke-width="1.2"/><ellipse cx="51.4" cy="200.4" rx="25.2" ry="11.6" transform="rotate(-144.5 51.4 200.4)" fill="#9AA483" fill-opacity="0.60" style="mix-blend-mode:multiply" filter="url(#soft)"/><line x1="71.9" y1="215.1" x2="30.8" y2="185.8" stroke="#9AA483" stroke-opacity="0.75" stroke-width="1.4"/><ellipse cx="98.1" cy="154.3" rx="34.6" ry="15.9" transform="rotate(-36.5 98.1 154.3)" fill="#57603F" fill-opacity="0.60" style="mix-blend-mode:multiply" filter="url(#soft)"/><line x1="70.2" y1="174.8" x2="125.9" y2="133.7" stroke="#57603F" stroke-opacity="0.75" stroke-width="1.9"/><path d="M46.0,414.0 L52.1,408.3 L58.1,402.5 L63.9,396.6 L69.6,390.6 L75.1,384.6 L80.5,378.4 L85.8,372.2 L90.9,365.9 L95.9,359.5 L100.8,353.0 L105.5,346.5 L110.1,339.8 L114.5,333.1 L118.8,326.2 L123.0,319.3 L127.0,312.4 L130.9,305.3 L134.7,298.1 L138.3,290.9 L141.8,283.6 L145.2,276.1 L148.4,268.6 L151.4,261.1 L154.4,253.4 L157.2,245.6 L159.8,237.8 L162.4,229.9 L164.8,221.9" fill="none" stroke="#57603F" stroke-width="3.9" stroke-opacity="0.6" stroke-linecap="round" filter="url(#soft)"/><ellipse cx="66.3" cy="369.3" rx="21.6" ry="9.9" transform="rotate(-98.6 66.3 369.3)" fill="#6D7659" fill-opacity="0.60" style="mix-blend-mode:multiply" filter="url(#soft)"/><line x1="69.6" y1="390.6" x2="63.1" y2="347.9" stroke="#6D7659" stroke-opacity="0.75" stroke-width="1.2"/><ellipse cx="115.4" cy="366.3" rx="24.5" ry="11.3" transform="rotate(1.0 115.4 366.3)" fill="#9AA483" fill-opacity="0.60" style="mix-blend-mode:multiply" filter="url(#soft)"/><line x1="90.9" y1="365.9" x2="139.8" y2="366.8" stroke="#9AA483" stroke-opacity="0.75" stroke-width="1.4"/><ellipse cx="101.5" cy="319.0" rx="22.5" ry="10.4" transform="rotate(-112.4 101.5 319.0)" fill="#57603F" fill-opacity="0.60" style="mix-blend-mode:multiply" filter="url(#soft)"/><line x1="110.1" y1="339.8" x2="92.9" y2="298.1" stroke="#57603F" stroke-opacity="0.75" stroke-width="1.2"/><ellipse cx="160.0" cy="313.6" rx="33.0" ry="15.2" transform="rotate(2.2 160.0 313.6)" fill="#6D7659" fill-opacity="0.60" style="mix-blend-mode:multiply" filter="url(#soft)"/><line x1="127.0" y1="312.4" x2="192.9" y2="314.9" stroke="#6D7659" stroke-opacity="0.75" stroke-width="1.8"/><ellipse cx="126.0" cy="254.6" rx="33.0" ry="15.2" transform="rotate(-118.7 126.0 254.6)" fill="#9AA483" fill-opacity="0.60" style="mix-blend-mode:multiply" filter="url(#soft)"/><line x1="141.8" y1="283.6" x2="110.2" y2="225.7" stroke="#9AA483" stroke-opacity="0.75" stroke-width="1.8"/><ellipse cx="185.2" cy="245.0" rx="31.9" ry="14.7" transform="rotate(-15.2 185.2 245.0)" fill="#57603F" fill-opacity="0.60" style="mix-blend-mode:multiply" filter="url(#soft)"/><line x1="154.4" y1="253.4" x2="216.0" y2="236.7" stroke="#57603F" stroke-opacity="0.75" stroke-width="1.8"/><path d="M46.0,414.0 L54.3,410.0 L62.4,405.8 L70.4,401.4 L78.2,396.9 L85.9,392.3 L93.3,387.5 L100.7,382.5 L107.9,377.3 L114.9,372.0 L121.7,366.6 L128.4,361.0 L135.0,355.2 L141.4,349.3 L147.6,343.2 L153.7,337.0 L159.6,330.6 L165.3,324.0 L170.9,317.3 L176.4,310.4 L181.6,303.4 L186.8,296.2 L191.7,288.8 L196.5,281.3 L201.2,273.7 L205.6,265.8 L210.0,257.9 L214.1,249.7 L218.1,241.4" fill="none" stroke="#57603F" stroke-width="4.2" stroke-opacity="0.6" stroke-linecap="round" filter="url(#soft)"/><ellipse cx="77.0" cy="370.0" rx="26.9" ry="12.4" transform="rotate(-92.5 77.0 370.0)" fill="#6D7659" fill-opacity="0.60" style="mix-blend-mode:multiply" filter="url(#soft)"/><line x1="78.2" y1="396.9" x2="75.8" y2="343.1" stroke="#6D7659" stroke-opacity="0.75" stroke-width="1.5"/><ellipse cx="134.5" cy="392.0" rx="30.4" ry="14.0" transform="rotate(28.8 134.5 392.0)" fill="#9AA483" fill-opacity="0.60" style="mix-blend-mode:multiply" filter="url(#soft)"/><line x1="107.9" y1="377.3" x2="161.2" y2="406.6" stroke="#9AA483" stroke-opacity="0.75" stroke-width="1.7"/><ellipse cx="125.8" cy="325.0" rx="31.6" ry="14.5" transform="rotate(-106.9 125.8 325.0)" fill="#57603F" fill-opacity="0.60" style="mix-blend-mode:multiply" filter="url(#soft)"/><line x1="135.0" y1="355.2" x2="116.6" y2="294.7" stroke="#57603F" stroke-opacity="0.75" stroke-width="1.7"/><ellipse cx="184.4" cy="334.7" rx="25.1" ry="11.6" transform="rotate(9.4 184.4 334.7)" fill="#6D7659" fill-opacity="0.60" style="mix-blend-mode:multiply" filter="url(#soft)"/><line x1="159.6" y1="330.6" x2="209.2" y2="338.8" stroke="#6D7659" stroke-opacity="0.75" stroke-width="1.4"/><ellipse cx="166.2" cy="269.1" rx="37.6" ry="17.3" transform="rotate(-114.2 166.2 269.1)" fill="#9AA483" fill-opacity="0.60" style="mix-blend-mode:multiply" filter="url(#soft)"/><line x1="181.6" y1="303.4" x2="150.8" y2="234.8" stroke="#9AA483" stroke-opacity="0.75" stroke-width="2.1"/><ellipse cx="239.7" cy="268.5" rx="38.9" ry="17.9" transform="rotate(-7.7 239.7 268.5)" fill="#57603F" fill-opacity="0.60" style="mix-blend-mode:multiply" filter="url(#soft)"/><line x1="201.2" y1="273.7" x2="278.3" y2="263.3" stroke="#57603F" stroke-opacity="0.75" stroke-width="2.1"/><path d="M46.0,414.0 L56.7,413.6 L67.2,412.9 L77.6,412.0 L87.9,410.8 L98.0,409.3 L108.0,407.5 L117.9,405.4 L127.6,403.1 L137.2,400.4 L146.7,397.5 L156.1,394.4 L165.3,390.9 L174.4,387.2 L183.3,383.1 L192.2,378.8 L200.9,374.2 L209.4,369.4 L217.9,364.2 L226.2,358.8 L234.4,353.1 L242.4,347.2 L250.3,340.9 L258.1,334.4 L265.7,327.5 L273.3,320.4 L280.7,313.1 L287.9,305.4 L295.0,297.5" fill="none" stroke="#57603F" stroke-width="4.5" stroke-opacity="0.6" stroke-linecap="round" filter="url(#soft)"/><ellipse cx="97.9" cy="381.9" rx="30.6" ry="14.1" transform="rotate(-70.8 97.9 381.9)" fill="#6D7659" fill-opacity="0.60" style="mix-blend-mode:multiply" filter="url(#soft)"/><line x1="87.9" y1="410.8" x2="108.0" y2="353.0" stroke="#6D7659" stroke-opacity="0.75" stroke-width="1.7"/><ellipse cx="150.0" cy="421.7" rx="29.1" ry="13.4" transform="rotate(39.8 150.0 421.7)" fill="#9AA483" fill-opacity="0.60" style="mix-blend-mode:multiply" filter="url(#soft)"/><line x1="127.6" y1="403.1" x2="172.3" y2="440.3" stroke="#9AA483" stroke-opacity="0.75" stroke-width="1.6"/><ellipse cx="168.8" cy="366.0" rx="25.1" ry="11.6" transform="rotate(-82.1 168.8 366.0)" fill="#57603F" fill-opacity="0.60" style="mix-blend-mode:multiply" filter="url(#soft)"/><line x1="165.3" y1="390.9" x2="172.2" y2="341.1" stroke="#57603F" stroke-opacity="0.75" stroke-width="1.4"/><ellipse cx="227.8" cy="392.1" rx="32.3" ry="14.9" transform="rotate(33.5 227.8 392.1)" fill="#6D7659" fill-opacity="0.60" style="mix-blend-mode:multiply" filter="url(#soft)"/><line x1="200.9" y1="374.2" x2="254.8" y2="409.9" stroke="#6D7659" stroke-opacity="0.75" stroke-width="1.8"/><ellipse cx="229.8" cy="320.7" rx="32.8" ry="15.1" transform="rotate(-98.1 229.8 320.7)" fill="#9AA483" fill-opacity="0.60" style="mix-blend-mode:multiply" filter="url(#soft)"/><line x1="234.4" y1="353.1" x2="225.2" y2="288.3" stroke="#9AA483" stroke-opacity="0.75" stroke-width="1.8"/><ellipse cx="296.7" cy="339.0" rx="33.0" ry="15.2" transform="rotate(20.3 296.7 339.0)" fill="#57603F" fill-opacity="0.60" style="mix-blend-mode:multiply" filter="url(#soft)"/><line x1="265.7" y1="327.5" x2="327.7" y2="350.5" stroke="#57603F" stroke-opacity="0.75" stroke-width="1.8"/><path d="M46.0,414.0 L54.1,415.4 L62.0,416.6 L70.0,417.5 L77.8,418.2 L85.5,418.6 L93.2,418.7 L100.8,418.6 L108.3,418.2 L115.8,417.6 L123.2,416.7 L130.4,415.5 L137.7,414.1 L144.8,412.4 L151.9,410.4 L158.8,408.2 L165.7,405.8 L172.6,403.0 L179.3,400.0 L186.0,396.8 L192.6,393.3 L199.1,389.5 L205.5,385.5 L211.9,381.2 L218.2,376.6 L224.4,371.8 L230.5,366.7 L236.6,361.4 L242.6,355.8" fill="none" stroke="#57603F" stroke-width="4.8" stroke-opacity="0.6" stroke-linecap="round" filter="url(#soft)"/><ellipse cx="95.9" cy="397.7" rx="27.4" ry="12.6" transform="rotate(-48.5 95.9 397.7)" fill="#6D7659" fill-opacity="0.60" style="mix-blend-mode:multiply" filter="url(#soft)"/><line x1="77.8" y1="418.2" x2="114.0" y2="377.2" stroke="#6D7659" stroke-opacity="0.75" stroke-width="1.5"/><ellipse cx="130.7" cy="442.4" rx="32.9" ry="15.1" transform="rotate(47.2 130.7 442.4)" fill="#9AA483" fill-opacity="0.60" style="mix-blend-mode:multiply" filter="url(#soft)"/><line x1="108.3" y1="418.2" x2="153.0" y2="466.5" stroke="#9AA483" stroke-opacity="0.75" stroke-width="1.8"/><ellipse cx="150.1" cy="383.1" rx="33.4" ry="15.4" transform="rotate(-68.1 150.1 383.1)" fill="#57603F" fill-opacity="0.60" style="mix-blend-mode:multiply" filter="url(#soft)"/><line x1="137.7" y1="414.1" x2="162.6" y2="352.1" stroke="#57603F" stroke-opacity="0.75" stroke-width="1.8"/><ellipse cx="188.8" cy="423.4" rx="29.0" ry="13.3" transform="rotate(37.4 188.8 423.4)" fill="#6D7659" fill-opacity="0.60" style="mix-blend-mode:multiply" filter="url(#soft)"/><line x1="165.7" y1="405.8" x2="211.8" y2="440.9" stroke="#6D7659" stroke-opacity="0.75" stroke-width="1.6"/><ellipse cx="194.7" cy="363.1" rx="30.2" ry="13.9" transform="rotate(-86.0 194.7 363.1)" fill="#9AA483" fill-opacity="0.60" style="mix-blend-mode:multiply" filter="url(#soft)"/><line x1="192.6" y1="393.3" x2="196.8" y2="333.0" stroke="#9AA483" stroke-opacity="0.75" stroke-width="1.7"/><ellipse cx="249.4" cy="384.7" rx="32.2" ry="14.8" transform="rotate(14.6 249.4 384.7)" fill="#57603F" fill-opacity="0.60" style="mix-blend-mode:multiply" filter="url(#soft)"/><line x1="218.2" y1="376.6" x2="280.5" y2="392.8" stroke="#57603F" stroke-opacity="0.75" stroke-width="1.8"/><ellipse cx="145.7" cy="302.5" rx="28.0" ry="18.1" transform="rotate(227.6 145.7 302.5)" fill="#E3A98F" fill-opacity="0.55" style="mix-blend-mode:multiply" filter="url(#soft)"/><ellipse cx="189.8" cy="293.1" rx="28.0" ry="18.1" transform="rotate(288.4 189.8 293.1)" fill="#E3A98F" fill-opacity="0.55" style="mix-blend-mode:multiply" filter="url(#soft)"/><ellipse cx="219.7" cy="328.0" rx="28.0" ry="18.1" transform="rotate(350.4 219.7 328.0)" fill="#E3A98F" fill-opacity="0.55" style="mix-blend-mode:multiply" filter="url(#soft)"/><ellipse cx="205.8" cy="368.3" rx="28.0" ry="18.1" transform="rotate(407.6 205.8 368.3)" fill="#E3A98F" fill-opacity="0.55" style="mix-blend-mode:multiply" filter="url(#soft)"/><ellipse cx="160.4" cy="377.2" rx="28.0" ry="18.1" transform="rotate(470.2 160.4 377.2)" fill="#E3A98F" fill-opacity="0.55" style="mix-blend-mode:multiply" filter="url(#soft)"/><ellipse cx="134.5" cy="352.3" rx="28.0" ry="18.1" transform="rotate(517.7 134.5 352.3)" fill="#E3A98F" fill-opacity="0.55" style="mix-blend-mode:multiply" filter="url(#soft)"/><ellipse cx="166.5" cy="303.7" rx="22.3" ry="14.8" transform="rotate(253.8 166.5 303.7)" fill="#B97A85" fill-opacity="0.55" style="mix-blend-mode:multiply" filter="url(#soft)"/><ellipse cx="201.2" cy="314.4" rx="22.3" ry="14.8" transform="rotate(320.5 201.2 314.4)" fill="#B97A85" fill-opacity="0.55" style="mix-blend-mode:multiply" filter="url(#soft)"/><ellipse cx="207.4" cy="344.7" rx="22.3" ry="14.8" transform="rotate(376.3 207.4 344.7)" fill="#B97A85" fill-opacity="0.55" style="mix-blend-mode:multiply" filter="url(#soft)"/><ellipse cx="181.6" cy="367.9" rx="22.3" ry="14.8" transform="rotate(439.9 181.6 367.9)" fill="#B97A85" fill-opacity="0.55" style="mix-blend-mode:multiply" filter="url(#soft)"/><ellipse cx="155.1" cy="361.1" rx="22.3" ry="14.8" transform="rotate(488.8 155.1 361.1)" fill="#B97A85" fill-opacity="0.55" style="mix-blend-mode:multiply" filter="url(#soft)"/><ellipse cx="143.7" cy="327.5" rx="22.3" ry="14.8" transform="rotate(553.8 143.7 327.5)" fill="#B97A85" fill-opacity="0.55" style="mix-blend-mode:multiply" filter="url(#soft)"/><ellipse cx="180.0" cy="312.7" rx="16.5" ry="11.5" transform="rotate(280.7 180.0 312.7)" fill="#8C4452" fill-opacity="0.50" style="mix-blend-mode:multiply" filter="url(#soft)"/><ellipse cx="198.8" cy="334.1" rx="16.5" ry="11.5" transform="rotate(356.9 198.8 334.1)" fill="#8C4452" fill-opacity="0.50" style="mix-blend-mode:multiply" filter="url(#soft)"/><ellipse cx="183.9" cy="357.0" rx="16.5" ry="11.5" transform="rotate(429.3 183.9 357.0)" fill="#8C4452" fill-opacity="0.50" style="mix-blend-mode:multiply" filter="url(#soft)"/><ellipse cx="159.9" cy="352.2" rx="16.5" ry="11.5" transform="rotate(493.4 159.9 352.2)" fill="#8C4452" fill-opacity="0.50" style="mix-blend-mode:multiply" filter="url(#soft)"/><ellipse cx="155.4" cy="324.5" rx="16.5" ry="11.5" transform="rotate(568.3 155.4 324.5)" fill="#8C4452" fill-opacity="0.50" style="mix-blend-mode:multiply" filter="url(#soft)"/><circle cx="175.8" cy="335.4" r="14.8" fill="#5B1F2A" fill-opacity="0.9" filter="url(#soft)"/><circle cx="175.8" cy="335.4" r="6.6" fill="#D8BFA3" fill-opacity="0.7"/><ellipse cx="209.3" cy="248.7" rx="24.6" ry="15.9" transform="rotate(290.1 209.3 248.7)" fill="#F8DDD0" fill-opacity="0.55" style="mix-blend-mode:multiply" filter="url(#soft)"/><ellipse cx="233.8" cy="275.6" rx="24.6" ry="15.9" transform="rotate(345.4 233.8 275.6)" fill="#F8DDD0" fill-opacity="0.55" style="mix-blend-mode:multiply" filter="url(#soft)"/><ellipse cx="224.8" cy="311.8" rx="24.6" ry="15.9" transform="rotate(402.3 224.8 311.8)" fill="#F8DDD0" fill-opacity="0.55" style="mix-blend-mode:multiply" filter="url(#soft)"/><ellipse cx="190.0" cy="324.2" rx="24.6" ry="15.9" transform="rotate(458.6 190.0 324.2)" fill="#F8DDD0" fill-opacity="0.55" style="mix-blend-mode:multiply" filter="url(#soft)"/><ellipse cx="157.6" cy="293.7" rx="24.6" ry="15.9" transform="rotate(527.9 157.6 293.7)" fill="#F8DDD0" fill-opacity="0.55" style="mix-blend-mode:multiply" filter="url(#soft)"/><ellipse cx="168.3" cy="257.7" rx="24.6" ry="15.9" transform="rotate(585.2 168.3 257.7)" fill="#F8DDD0" fill-opacity="0.55" style="mix-blend-mode:multiply" filter="url(#soft)"/><ellipse cx="217.8" cy="266.6" rx="19.6" ry="13.0" transform="rotate(319.2 217.8 266.6)" fill="#F2C6B4" fill-opacity="0.55" style="mix-blend-mode:multiply" filter="url(#soft)"/><ellipse cx="224.0" cy="292.4" rx="19.6" ry="13.0" transform="rotate(373.8 224.0 292.4)" fill="#F2C6B4" fill-opacity="0.55" style="mix-blend-mode:multiply" filter="url(#soft)"/><ellipse cx="201.2" cy="314.0" rx="19.6" ry="13.0" transform="rotate(439.4 201.2 314.0)" fill="#F2C6B4" fill-opacity="0.55" style="mix-blend-mode:multiply" filter="url(#soft)"/><ellipse cx="176.3" cy="306.9" rx="19.6" ry="13.0" transform="rotate(492.4 176.3 306.9)" fill="#F2C6B4" fill-opacity="0.55" style="mix-blend-mode:multiply" filter="url(#soft)"/><ellipse cx="168.6" cy="275.7" rx="19.6" ry="13.0" transform="rotate(559.8 168.6 275.7)" fill="#F2C6B4" fill-opacity="0.55" style="mix-blend-mode:multiply" filter="url(#soft)"/><ellipse cx="190.2" cy="257.0" rx="19.6" ry="13.0" transform="rotate(618.8 190.2 257.0)" fill="#F2C6B4" fill-opacity="0.55" style="mix-blend-mode:multiply" filter="url(#soft)"/><ellipse cx="215.4" cy="280.0" rx="14.5" ry="10.2" transform="rotate(344.4 215.4 280.0)" fill="#E3A98F" fill-opacity="0.50" style="mix-blend-mode:multiply" filter="url(#soft)"/><ellipse cx="206.6" cy="302.7" rx="14.5" ry="10.2" transform="rotate(418.1 206.6 302.7)" fill="#E3A98F" fill-opacity="0.50" style="mix-blend-mode:multiply" filter="url(#soft)"/><ellipse cx="182.2" cy="300.5" rx="14.5" ry="10.2" transform="rotate(492.2 182.2 300.5)" fill="#E3A98F" fill-opacity="0.50" style="mix-blend-mode:multiply" filter="url(#soft)"/><ellipse cx="176.5" cy="279.5" rx="14.5" ry="10.2" transform="rotate(557.3 176.5 279.5)" fill="#E3A98F" fill-opacity="0.50" style="mix-blend-mode:multiply" filter="url(#soft)"/><ellipse cx="197.4" cy="265.3" rx="14.5" ry="10.2" transform="rotate(634.4 197.4 265.3)" fill="#E3A98F" fill-opacity="0.50" style="mix-blend-mode:multiply" filter="url(#soft)"/><circle cx="195.9" cy="285.5" r="13.0" fill="#8C4452" fill-opacity="0.9" filter="url(#soft)"/><circle cx="195.9" cy="285.5" r="5.8" fill="#D8BFA3" fill-opacity="0.7"/><ellipse cx="242.7" cy="310.1" rx="21.2" ry="13.8" transform="rotate(111.7 242.7 310.1)" fill="#E3A98F" fill-opacity="0.55" style="mix-blend-mode:multiply" filter="url(#soft)"/><ellipse cx="221.4" cy="279.5" rx="21.2" ry="13.8" transform="rotate(178.7 221.4 279.5)" fill="#E3A98F" fill-opacity="0.55" style="mix-blend-mode:multiply" filter="url(#soft)"/><ellipse cx="233.8" cy="252.6" rx="21.2" ry="13.8" transform="rotate(230.6 233.8 252.6)" fill="#E3A98F" fill-opacity="0.55" style="mix-blend-mode:multiply" filter="url(#soft)"/><ellipse cx="270.5" cy="248.6" rx="21.2" ry="13.8" transform="rotate(297.1 270.5 248.6)" fill="#E3A98F" fill-opacity="0.55" style="mix-blend-mode:multiply" filter="url(#soft)"/><ellipse cx="288.8" cy="275.6" rx="21.2" ry="13.8" transform="rotate(354.7 288.8 275.6)" fill="#E3A98F" fill-opacity="0.55" style="mix-blend-mode:multiply" filter="url(#soft)"/><ellipse cx="276.7" cy="304.7" rx="21.2" ry="13.8" transform="rotate(410.4 276.7 304.7)" fill="#E3A98F" fill-opacity="0.55" style="mix-blend-mode:multiply" filter="url(#soft)"/><ellipse cx="234.3" cy="292.4" rx="16.9" ry="11.2" transform="rotate(146.7 234.3 292.4)" fill="#B97A85" fill-opacity="0.55" style="mix-blend-mode:multiply" filter="url(#soft)"/><ellipse cx="231.7" cy="270.1" rx="16.9" ry="11.2" transform="rotate(200.1 231.7 270.1)" fill="#B97A85" fill-opacity="0.55" style="mix-blend-mode:multiply" filter="url(#soft)"/><ellipse cx="253.3" cy="253.8" rx="16.9" ry="11.2" transform="rotate(265.7 253.3 253.8)" fill="#B97A85" fill-opacity="0.55" style="mix-blend-mode:multiply" filter="url(#soft)"/><ellipse cx="274.5" cy="262.8" rx="16.9" ry="11.2" transform="rotate(320.6 274.5 262.8)" fill="#B97A85" fill-opacity="0.55" style="mix-blend-mode:multiply" filter="url(#soft)"/><ellipse cx="278.5" cy="287.6" rx="16.9" ry="11.2" transform="rotate(380.8 278.5 287.6)" fill="#B97A85" fill-opacity="0.55" style="mix-blend-mode:multiply" filter="url(#soft)"/><ellipse cx="257.1" cy="303.6" rx="16.9" ry="11.2" transform="rotate(445.5 257.1 303.6)" fill="#B97A85" fill-opacity="0.55" style="mix-blend-mode:multiply" filter="url(#soft)"/><ellipse cx="237.7" cy="278.3" rx="12.5" ry="8.8" transform="rotate(181.2 237.7 278.3)" fill="#8C4452" fill-opacity="0.50" style="mix-blend-mode:multiply" filter="url(#soft)"/><ellipse cx="247.3" cy="263.1" rx="12.5" ry="8.8" transform="rotate(243.3 247.3 263.1)" fill="#8C4452" fill-opacity="0.50" style="mix-blend-mode:multiply" filter="url(#soft)"/><ellipse cx="267.9" cy="266.7" rx="12.5" ry="8.8" transform="rotate(316.7 267.9 266.7)" fill="#8C4452" fill-opacity="0.50" style="mix-blend-mode:multiply" filter="url(#soft)"/><ellipse cx="269.6" cy="288.6" rx="12.5" ry="8.8" transform="rotate(394.4 269.6 288.6)" fill="#8C4452" fill-opacity="0.50" style="mix-blend-mode:multiply" filter="url(#soft)"/><ellipse cx="249.0" cy="295.0" rx="12.5" ry="8.8" transform="rotate(470.8 249.0 295.0)" fill="#8C4452" fill-opacity="0.50" style="mix-blend-mode:multiply" filter="url(#soft)"/><circle cx="255.2" cy="278.7" r="11.2" fill="#5B1F2A" fill-opacity="0.9" filter="url(#soft)"/><circle cx="255.2" cy="278.7" r="5.0" fill="#D8BFA3" fill-opacity="0.7"/><ellipse cx="90.7" cy="226.1" rx="8.2" ry="5.2" transform="rotate(26.3 90.7 226.1)" fill="#FFFBF6" fill-opacity="0.80" style="mix-blend-mode:multiply" filter="url(#soft)"/><ellipse cx="84.8" cy="230.2" rx="8.2" ry="5.2" transform="rotate(83.4 84.8 230.2)" fill="#FFFBF6" fill-opacity="0.80" style="mix-blend-mode:multiply" filter="url(#soft)"/><ellipse cx="77.3" cy="226.3" rx="8.2" ry="5.2" transform="rotate(152.2 77.3 226.3)" fill="#FFFBF6" fill-opacity="0.80" style="mix-blend-mode:multiply" filter="url(#soft)"/><ellipse cx="77.0" cy="220.0" rx="8.2" ry="5.2" transform="rotate(201.9 77.0 220.0)" fill="#FFFBF6" fill-opacity="0.80" style="mix-blend-mode:multiply" filter="url(#soft)"/><ellipse cx="83.7" cy="215.3" rx="8.2" ry="5.2" transform="rotate(267.8 83.7 215.3)" fill="#FFFBF6" fill-opacity="0.80" style="mix-blend-mode:multiply" filter="url(#soft)"/><ellipse cx="90.6" cy="219.3" rx="8.2" ry="5.2" transform="rotate(332.6 90.6 219.3)" fill="#FFFBF6" fill-opacity="0.80" style="mix-blend-mode:multiply" filter="url(#soft)"/><circle cx="84.0" cy="222.8" r="4.2" fill="#D8BFA3" fill-opacity="0.95"/><ellipse cx="195.0" cy="322.4" rx="8.2" ry="5.2" transform="rotate(33.4 195.0 322.4)" fill="#F8DDD0" fill-opacity="0.80" style="mix-blend-mode:multiply" filter="url(#soft)"/><ellipse cx="188.0" cy="325.7" rx="8.2" ry="5.2" transform="rotate(95.2 188.0 325.7)" fill="#F8DDD0" fill-opacity="0.80" style="mix-blend-mode:multiply" filter="url(#soft)"/><ellipse cx="182.1" cy="321.9" rx="8.2" ry="5.2" transform="rotate(150.8 182.1 321.9)" fill="#F8DDD0" fill-opacity="0.80" style="mix-blend-mode:multiply" filter="url(#soft)"/><ellipse cx="182.8" cy="313.6" rx="8.2" ry="5.2" transform="rotate(218.0 182.8 313.6)" fill="#F8DDD0" fill-opacity="0.80" style="mix-blend-mode:multiply" filter="url(#soft)"/><ellipse cx="189.8" cy="310.8" rx="8.2" ry="5.2" transform="rotate(278.2 189.8 310.8)" fill="#F8DDD0" fill-opacity="0.80" style="mix-blend-mode:multiply" filter="url(#soft)"/><ellipse cx="195.6" cy="315.2" rx="8.2" ry="5.2" transform="rotate(336.1 195.6 315.2)" fill="#F8DDD0" fill-opacity="0.80" style="mix-blend-mode:multiply" filter="url(#soft)"/><circle cx="188.7" cy="318.3" r="4.2" fill="#D8BFA3" fill-opacity="0.95"/><ellipse cx="324.1" cy="312.4" rx="8.2" ry="5.2" transform="rotate(27.9 324.1 312.4)" fill="#FFFBF6" fill-opacity="0.80" style="mix-blend-mode:multiply" filter="url(#soft)"/><ellipse cx="317.2" cy="316.3" rx="8.2" ry="5.2" transform="rotate(92.2 317.2 316.3)" fill="#FFFBF6" fill-opacity="0.80" style="mix-blend-mode:multiply" filter="url(#soft)"/><ellipse cx="311.2" cy="313.0" rx="8.2" ry="5.2" transform="rotate(146.7 311.2 313.0)" fill="#FFFBF6" fill-opacity="0.80" style="mix-blend-mode:multiply" filter="url(#soft)"/><ellipse cx="310.8" cy="305.4" rx="8.2" ry="5.2" transform="rotate(207.2 310.8 305.4)" fill="#FFFBF6" fill-opacity="0.80" style="mix-blend-mode:multiply" filter="url(#soft)"/><ellipse cx="317.3" cy="301.4" rx="8.2" ry="5.2" transform="rotate(268.2 317.3 301.4)" fill="#FFFBF6" fill-opacity="0.80" style="mix-blend-mode:multiply" filter="url(#soft)"/><ellipse cx="323.5" cy="304.4" rx="8.2" ry="5.2" transform="rotate(323.4 323.5 304.4)" fill="#FFFBF6" fill-opacity="0.80" style="mix-blend-mode:multiply" filter="url(#soft)"/><circle cx="317.5" cy="308.8" r="4.2" fill="#D8BFA3" fill-opacity="0.95"/><ellipse cx="81.7" cy="292.3" rx="8.2" ry="5.2" transform="rotate(30.4 81.7 292.3)" fill="#F8DDD0" fill-opacity="0.80" style="mix-blend-mode:multiply" filter="url(#soft)"/><ellipse cx="75.2" cy="296.0" rx="8.2" ry="5.2" transform="rotate(90.5 75.2 296.0)" fill="#F8DDD0" fill-opacity="0.80" style="mix-blend-mode:multiply" filter="url(#soft)"/><ellipse cx="69.1" cy="292.9" rx="8.2" ry="5.2" transform="rotate(144.2 69.1 292.9)" fill="#F8DDD0" fill-opacity="0.80" style="mix-blend-mode:multiply" filter="url(#soft)"/><ellipse cx="68.3" cy="285.6" rx="8.2" ry="5.2" transform="rotate(202.6 68.3 285.6)" fill="#F8DDD0" fill-opacity="0.80" style="mix-blend-mode:multiply" filter="url(#soft)"/><ellipse cx="74.8" cy="281.0" rx="8.2" ry="5.2" transform="rotate(267.0 74.8 281.0)" fill="#F8DDD0" fill-opacity="0.80" style="mix-blend-mode:multiply" filter="url(#soft)"/><ellipse cx="81.4" cy="284.3" rx="8.2" ry="5.2" transform="rotate(325.8 81.4 284.3)" fill="#F8DDD0" fill-opacity="0.80" style="mix-blend-mode:multiply" filter="url(#soft)"/><circle cx="75.2" cy="288.5" r="4.2" fill="#D8BFA3" fill-opacity="0.95"/>
</svg>