<svg xmlns="http://www.w3.org/2000/svg" viewBox="0 0 220 80" width="220" height="80" role="img" aria-hidden="true" focusable="false">
  <defs>
<filter id="soft" x="-60%" y="-60%" width="220%" height="220%">
  <feGaussianBlur stdDeviation="1.1"/>
</filter>
</defs>
  <path d="M198.0,44.0 L192.7,42.3 L187.3,40.7 L182.0,39.1 L176.7,37.5 L171.3,36.1 L165.9,34.6 L160.5,33.3 L155.2,31.9 L149.8,30.7 L144.3,29.5 L138.9,28.3 L133.5,27.2 L128.1,26.2 L122.6,25.2 L117.2,24.3 L111.7,23.4 L106.2,22.6 L100.7,21.8 L95.2,21.1 L89.7,20.4 L84.2,19.8 L78.7,19.3 L73.2,18.8 L67.6,18.3 L62.1,17.9 L56.5,17.6 L50.9,17.3 L45.4,17.1" fill="none" stroke="#57603F" stroke-width="2.4" stroke-opacity="0.6" stroke-linecap="round" filter="url(#soft)"/><ellipse cx="162.6" cy="47.1" rx="14.8" ry="6.8" transform="rotate(-225.2 162.6 47.1)" fill="#6D7659" fill-opacity="0.60" style="mix-blend-mode:multiply" filter="url(#soft)"/><line x1="173.1" y1="36.5" x2="152.2" y2="57.6" stroke="#6D7659" stroke-opacity="0.75" stroke-width="0.8"/><ellipse cx="140.7" cy="14.8" rx="17.0" ry="7.8" transform="rotate(-115.0 140.7 14.8)" fill="#9AA483" fill-opacity="0.60" style="mix-blend-mode:multiply" filter="url(#soft)"/><line x1="148.0" y1="30.3" x2="133.5" y2="-0.6" stroke="#9AA483" stroke-opacity="0.75" stroke-width="0.9"/><ellipse cx="112.9" cy="35.2" rx="13.9" ry="6.4" transform="rotate(-226.0 112.9 35.2)" fill="#57603F" fill-opacity="0.60" style="mix-blend-mode:multiply" filter="url(#soft)"/><line x1="122.6" y1="25.2" x2="103.2" y2="45.3" stroke="#57603F" stroke-opacity="0.75" stroke-width="0.8"/><ellipse cx="91.5" cy="5.6" rx="16.6" ry="7.7" transform="rotate(-109.7 91.5 5.6)" fill="#6D7659" fill-opacity="0.60" style="mix-blend-mode:multiply" filter="url(#soft)"/><line x1="97.1" y1="21.3" x2="85.9" y2="-10.0" stroke="#6D7659" stroke-opacity="0.75" stroke-width="0.9"/><ellipse cx="59.5" cy="35.5" rx="20.7" ry="9.5" transform="rotate(-235.0 59.5 35.5)" fill="#9AA483" fill-opacity="0.60" style="mix-blend-mode:multiply" filter="url(#soft)"/><line x1="71.3" y1="18.6" x2="47.6" y2="52.4" stroke="#9AA483" stroke-opacity="0.75" stroke-width="1.1"/><ellipse cx="39.7" cy="56.8" rx="14.4" ry="9.3" transform="rotate(95.8 39.7 56.8)" fill="#E3A98F" fill-opacity="0.55" style="mix-blend-mode:multiply" filter="url(#soft)"/><ellipse cx="21.1" cy="43.4" rx="14.4" ry="9.3" transform="rotate(155.8 21.1 43.4)" fill="#E3A98F" fill-opacity="0.55" style="mix-blend-mode:multiply" filter="url(#soft)"/><ellipse cx="23.9" cy="19.8" rx="14.4" ry="9.3" transform="rotate(218.1 23.9 19.8)" fill="#E3A98F" fill-opacity="0.55" style="mix-blend-mode:multiply" filter="url(#soft)"/><ellipse cx="41.5" cy="11.1" rx="14.4" ry="9.3" transform="rotate(268.8 41.5 11.1)" fill="#E3A98F" fill-opacity="0.55" style="mix-blend-mode:multiply" filter="url(#soft)"/><ellipse cx="61.8" cy="22.3" rx="14.4" ry="9.3" transform="rotate(329.5 61.8 22.3)" fill="#E3A98F" fill-opacity="0.55" style="mix-blend-mode:multiply" filter="url(#soft)"/><ellipse cx="62.2" cy="44.9" rx="14.4" ry="9.3" transform="rotate(388.3 62.2 44.9)" fill="#E3A98F" fill-opacity="0.55" style="mix-blend-mode:multiply" filter="url(#soft)"/><ellipse cx="33.7" cy="48.8" rx="11.5" ry="7.6" transform="rotate(119.4 33.7 48.8)" fill="#B97A85" fill-opacity="0.55" style="mix-blend-mode:multiply" filter="url(#soft)"/><ellipse cx="25.1" cy="32.1" rx="11.5" ry="7.6" transform="rotate(186.5 25.1 32.1)" fill="#B97A85" fill-opacity="0.55" style="mix-blend-mode:multiply" filter="url(#soft)"/><ellipse cx="33.0" cy="19.6" rx="11.5" ry="7.6" transform="rotate(238.1 33.0 19.6)" fill="#B97A85" fill-opacity="0.55" style="mix-blend-mode:multiply" filter="url(#soft)"/><ellipse cx="51.4" cy="19.9" rx="11.5" ry="7.6" transform="rotate(303.7 51.4 19.9)" fill="#B97A85" fill-opacity="0.55" style="mix-blend-mode:multiply" filter="url(#soft)"/><ellipse cx="59.0" cy="33.8" rx="11.5" ry="7.6" transform="rotate(359.2 59.0 33.8)" fill="#B97A85" fill-opacity="0.55" style="mix-blend-mode:multiply" filter="url(#soft)"/><ellipse cx="50.4" cy="48.8" rx="11.5" ry="7.6" transform="rotate(420.4 50.4 48.8)" fill="#B97A85" fill-opacity="0.55" style="mix-blend-mode:multiply" filter="url(#soft)"/><ellipse cx="31.5" cy="39.5" rx="8.5" ry="6.0" transform="rotate(152.3 31.5 39.5)" fill="#8C4452" fill-opacity="0.50" style="mix-blend-mode:multiply" filter="url(#soft)"/><ellipse cx="34.3" cy="24.9" rx="8.5" ry="6.0" transform="rotate(230.0 34.3 24.9)" fill="#8C4452" fill-opacity="0.50" style="mix-blend-mode:multiply" filter="url(#soft)"/><ellipse cx="47.7" cy="23.6" rx="8.5" ry="6.0" transform="rotate(298.8 47.7 23.6)" fill="#8C4452" fill-opacity="0.50" style="mix-blend-mode:multiply" filter="url(#soft)"/><ellipse cx="53.9" cy="34.5" rx="8.5" ry="6.0" transform="rotate(362.4 53.9 34.5)" fill="#8C4452" fill-opacity="0.50" style="mix-blend-mode:multiply" filter="url(#soft)"/><ellipse cx="44.5" cy="45.6" rx="8.5" ry="6.0" transform="rotate(438.1 44.5 45.6)" fill="#8C4452" fill-opacity="0.50" style="mix-blend-mode:multiply" filter="url(#soft)"/><circle cx="42.0" cy="34.0" r="7.6" fill="#5B1F2A" fill-opacity="0.9" filter="url(#soft)"/><circle cx="42.0" cy="34.0" r="3.4" fill="#D8BFA3" fill-opacity="0.7"/>
</svg>